{"glyphs":{"0":{"ha":674,"x_min":52,"x_max":611,"o":"m 241 819 q 220 810 235 810 q 193 834 193 810 q 209 874 193 851 l 217 888 q 292 987 258 960 q 387 1014 326 1014 q 500 946 448 1014 q 582 777 553 878 q 611 573 611 675 q 579 380 611 483 q 498 194 547 277 q 386 55 449 111 q 263 0 322 0 q 169 53 214 0 q 93 188 123 105 q 52 365 62 271 l 52 382 q 214 753 52 597 q 233 764 226 764 q 242 747 242 764 q 235 715 242 730 q 208 615 215 652 q 201 523 201 579 l 201 512 q 222 346 201 425 q 281 219 243 267 q 364 170 319 170 l 371 170 q 425 205 401 170 q 459 280 448 239 q 470 353 470 321 q 444 559 470 446 q 373 758 417 673 q 284 843 328 843 q 266 837 277 843 q 248 825 255 831 l 241 819 z "},"1":{"ha":370,"x_min":41,"x_max":290,"o":"m 41 793 q 81 863 41 809 q 173 965 122 916 q 247 1013 224 1013 q 264 1010 257 1013 q 276 998 272 1006 q 283 982 281 990 q 288 958 286 973 q 289 929 289 942 q 290 895 290 917 l 290 168 q 244 55 290 111 q 166 0 199 0 q 147 6 157 0 q 138 22 138 12 l 138 545 q 132 666 138 610 q 118 753 127 722 q 100 785 109 785 q 89 778 98 785 q 68 771 81 771 q 48 777 56 771 q 41 793 41 783 z "},"2":{"ha":544,"x_min":22,"x_max":493,"o":"m 191 808 q 153 800 170 808 q 126 784 136 793 q 109 767 117 774 q 94 760 100 760 q 68 779 80 760 q 57 822 57 798 q 62 849 57 838 l 69 864 q 152 968 89 912 q 272 1025 214 1025 q 355 999 319 1025 q 411 930 391 972 q 439 842 430 888 q 449 750 449 797 l 449 745 q 432 609 449 664 q 376 479 416 555 q 309 370 361 455 q 236 245 256 284 q 356 269 305 269 q 477 248 391 269 q 493 218 493 243 q 471 136 493 185 q 416 49 450 87 q 356 11 383 11 q 283 20 339 16 q 190 24 227 24 q 71 7 127 24 q 35 17 48 7 q 22 43 22 27 q 31 68 22 55 l 38 82 q 90 158 54 113 q 160 247 125 203 q 227 342 194 290 q 281 456 260 393 q 302 584 302 519 l 302 602 q 191 808 302 808 z "},"3":{"ha":495,"x_min":54,"x_max":440,"o":"m 401 833 q 386 742 401 785 q 352 675 370 699 q 318 629 334 650 q 302 598 302 608 q 306 591 302 593 q 316 586 310 588 q 323 584 322 585 q 410 509 379 565 q 440 368 440 453 q 426 262 440 311 q 391 180 412 214 q 338 114 370 147 q 279 61 305 81 q 216 16 252 42 q 161 -26 179 -11 q 131 -40 145 -40 q 114 -23 114 -40 q 142 21 114 -1 q 192 67 173 48 q 234 117 210 86 q 270 180 258 147 q 281 250 281 214 l 281 267 q 271 355 281 318 q 239 415 260 393 q 195 450 219 438 q 139 469 171 463 q 110 476 120 469 q 100 496 100 484 q 112 526 100 513 q 142 551 124 538 q 179 581 160 564 q 213 630 197 597 q 235 708 229 663 l 235 715 q 204 806 235 766 q 135 846 174 846 q 96 831 115 846 q 68 816 77 816 q 54 837 54 816 q 74 886 54 861 q 79 893 76 888 q 113 934 100 918 q 151 973 127 949 q 201 1008 176 996 q 252 1021 227 1021 q 358 968 314 1021 q 401 833 401 916 z "},"4":{"ha":640,"x_min":49,"x_max":608,"o":"m 355 905 q 325 851 349 893 q 293 795 300 810 q 266 746 285 781 q 241 692 248 711 q 224 643 234 673 q 210 587 214 613 q 207 534 207 561 q 232 471 207 485 q 324 457 257 457 l 324 632 q 350 711 324 670 q 408 778 376 753 q 460 803 440 803 q 479 779 479 803 l 479 488 l 593 509 l 595 509 q 608 487 608 509 q 594 424 608 461 q 552 353 579 387 q 495 313 524 319 l 480 304 l 480 151 q 466 83 480 115 q 432 29 452 50 q 390 -4 412 8 q 352 -17 368 -17 q 324 16 324 -17 l 324 282 l 158 282 q 119 285 136 282 q 85 297 103 288 q 58 327 68 307 q 49 378 49 347 q 75 513 49 433 q 135 665 100 592 q 212 811 170 737 q 279 926 254 885 q 318 985 305 967 q 333 996 326 996 q 354 979 345 996 q 363 941 363 962 q 355 905 363 922 z "},"5":{"ha":513,"x_min":51,"x_max":509,"o":"m 397 378 q 371 237 397 305 q 307 121 345 169 q 224 36 268 73 q 144 -19 180 -1 q 89 -37 109 -37 q 61 -28 71 -37 q 51 -5 51 -19 q 81 41 51 20 l 96 53 q 117 69 113 65 q 137 86 121 73 q 159 106 153 99 q 180 127 165 113 q 200 150 194 141 q 217 174 207 159 q 232 200 227 189 q 240 227 236 212 q 243 254 243 241 q 240 331 243 297 q 226 391 236 365 q 207 435 216 418 q 179 472 198 453 q 149 500 161 490 q 112 529 138 510 q 74 559 87 548 l 62 569 q 51 610 51 577 q 79 761 51 667 q 153 930 107 854 q 239 1006 199 1006 q 269 999 243 1006 q 327 991 294 991 q 350 991 334 991 q 377 991 367 991 q 477 1006 425 991 l 494 1011 q 496 1012 494 1011 l 498 1012 q 509 1000 509 1012 q 494 949 509 991 q 459 873 474 902 q 422 817 444 844 q 374 777 401 789 q 315 764 348 764 l 291 764 q 216 782 256 764 q 195 770 203 782 q 186 743 186 758 q 206 721 186 721 q 338 595 279 692 q 397 378 397 498 z "},"6":{"ha":581,"x_min":52,"x_max":538,"o":"m 277 565 q 319 641 277 596 q 411 685 362 685 q 464 654 439 685 q 505 579 489 623 q 529 493 520 535 q 538 423 538 450 q 461 110 538 220 q 256 0 384 0 q 158 47 205 0 q 81 177 111 95 q 52 352 52 259 q 79 534 52 440 q 142 698 106 629 q 226 838 177 767 q 301 941 275 909 q 354 1003 328 973 q 361 1011 360 1009 q 381 1021 371 1021 q 404 1005 395 1021 q 414 969 414 989 q 398 926 414 942 q 312 836 330 857 q 197 581 215 720 q 193 508 193 545 q 213 367 193 445 q 271 228 233 289 q 353 167 310 167 q 391 190 376 167 q 405 245 405 213 q 373 408 405 328 q 300 524 341 487 q 277 565 277 543 z "},"7":{"ha":483,"x_min":40,"x_max":471,"o":"m 307 962 q 369 965 340 962 q 413 972 397 968 q 433 976 429 976 q 459 963 448 976 q 471 932 471 951 q 465 904 471 918 l 460 890 q 407 758 422 796 q 357 622 392 719 q 305 465 321 524 q 273 330 288 406 q 258 198 258 254 l 258 186 q 234 93 258 140 q 178 18 210 46 q 123 -10 146 -10 q 98 27 98 -10 q 117 113 98 60 l 319 732 l 262 732 q 56 782 84 732 l 48 797 q 40 828 40 809 q 61 907 40 862 q 110 985 81 953 q 160 1018 139 1018 q 176 1011 168 1018 l 186 998 q 307 962 215 962 z "},"8":{"ha":586,"x_min":50,"x_max":523,"o":"m 378 275 q 338 407 378 348 q 254 484 299 465 q 197 323 197 399 q 207 244 197 281 q 235 183 216 208 q 281 159 254 159 q 345 196 312 159 q 378 275 378 234 m 69 693 q 93 786 69 734 q 148 881 117 839 q 208 951 178 922 q 250 980 237 980 q 271 970 261 980 q 280 947 280 960 q 269 924 280 935 q 226 859 241 895 q 210 793 210 823 q 246 688 210 737 q 329 627 281 640 q 355 744 355 680 q 342 817 355 788 q 307 846 329 846 q 292 843 298 846 q 281 840 286 840 q 266 862 266 840 q 322 960 266 903 q 427 1016 378 1016 q 484 976 464 1016 q 504 880 504 937 q 461 739 504 817 q 374 608 419 661 q 415 584 400 593 q 454 555 431 574 q 490 516 477 536 q 513 467 503 496 q 523 401 523 437 q 490 246 523 322 q 407 117 457 170 q 299 32 357 64 q 189 0 240 0 q 90 49 131 0 q 50 174 50 98 q 67 284 50 233 q 104 362 84 335 q 158 432 123 390 q 206 494 192 474 q 172 515 187 505 q 137 544 157 526 q 102 583 116 563 q 79 632 89 603 q 69 693 69 661 z "},"9":{"ha":613,"x_min":60,"x_max":547,"o":"m 298 515 q 316 521 306 515 q 332 526 327 526 q 348 503 348 526 q 330 450 348 479 q 261 389 295 412 q 188 366 227 366 q 131 393 157 366 q 90 462 105 420 q 67 547 75 504 q 60 628 60 591 q 88 833 60 747 q 181 972 117 920 q 339 1023 245 1023 q 445 967 396 1023 q 520 825 494 910 q 547 653 547 741 q 266 41 547 281 l 252 28 q 218 12 237 12 q 191 25 202 12 q 180 59 180 39 q 182 76 180 67 q 187 90 184 85 q 195 104 189 96 q 203 116 201 113 q 212 127 205 119 q 220 136 220 136 q 254 174 229 146 q 295 221 279 203 q 334 274 311 240 q 370 336 357 307 q 394 405 384 366 q 404 484 404 444 q 385 656 404 570 q 328 803 366 742 q 245 863 290 863 q 205 834 218 863 q 192 772 192 806 q 205 667 192 726 q 244 562 219 608 q 298 515 270 515 z "},"\u0000":{"ha":0,"x_min":0,"x_max":0,"o":""}," ":{"ha":382,"x_min":0,"x_max":0,"o":""},"!":{"ha":285,"x_min":66,"x_max":215,"o":"m 74 92 q 98 188 74 146 q 153 230 122 230 q 193 203 178 230 q 209 136 209 176 q 185 40 209 82 q 129 -2 161 -2 q 89 25 104 -2 q 74 92 74 52 m 66 966 l 66 969 l 66 979 q 112 1079 66 1033 q 195 1126 159 1126 q 215 1089 215 1126 l 181 500 q 170 450 176 469 q 153 422 163 431 q 136 412 143 414 q 116 410 128 410 q 101 425 106 410 q 95 456 95 439 l 66 966 z "},"\"":{"ha":405,"x_min":63,"x_max":333,"o":"m 333 1092 l 289 782 q 273 758 286 767 q 245 748 260 748 q 218 774 218 748 l 218 1069 q 241 1101 218 1090 q 292 1112 264 1112 q 333 1095 333 1112 l 333 1092 m 178 1086 l 134 777 q 118 753 131 762 q 90 743 105 743 q 63 769 63 743 l 63 1064 q 86 1096 63 1084 q 136 1107 109 1107 q 178 1089 178 1107 l 178 1086 z "},"#":{"ha":664,"x_min":68,"x_max":597,"o":"m 192 427 l 222 642 l 141 642 q 123 660 130 642 q 117 704 117 678 q 128 765 117 739 q 161 791 140 791 l 243 791 l 273 1026 q 293 1072 277 1057 q 329 1088 309 1088 q 359 1075 347 1088 q 372 1039 372 1062 q 371 1026 372 1030 l 340 791 l 397 791 l 430 1030 q 450 1077 434 1061 q 486 1093 467 1093 q 516 1079 503 1093 q 528 1044 528 1066 q 528 1030 528 1035 l 494 790 l 572 790 q 590 772 584 790 q 597 728 597 754 q 585 669 597 695 q 553 642 574 642 l 473 642 l 443 427 l 524 427 q 542 409 535 427 q 548 366 548 391 q 536 305 548 331 q 504 279 525 279 l 422 279 l 391 43 q 371 -3 387 13 q 336 -18 355 -18 q 306 -5 318 -18 q 293 30 293 7 q 294 43 293 39 l 324 279 l 268 279 l 235 39 q 214 -7 231 9 q 179 -23 198 -23 q 149 -10 161 -23 q 136 26 136 3 q 137 39 136 35 l 171 279 l 92 279 q 74 297 81 279 q 68 340 68 315 q 79 400 68 374 q 112 427 91 427 l 192 427 m 345 427 l 376 642 l 319 642 l 289 427 l 345 427 z "},"$":{"ha":674,"x_min":66,"x_max":605,"o":"m 455 282 q 434 377 455 338 q 376 426 414 416 l 376 142 q 436 187 417 157 q 455 282 455 217 m 288 963 q 235 913 258 963 q 211 804 211 864 q 219 744 211 775 q 246 690 228 713 q 288 666 264 666 l 288 963 m 209 308 l 214 285 q 232 227 222 250 q 252 195 242 204 q 270 182 262 185 q 288 180 277 180 l 288 503 q 254 518 282 506 q 203 542 225 531 q 155 568 181 552 q 117 599 130 585 q 83 653 92 629 q 75 717 75 677 q 83 807 75 765 q 108 883 92 849 q 142 945 124 918 q 187 997 161 972 q 235 1039 213 1022 q 285 1076 256 1056 l 285 1156 q 310 1222 285 1194 q 357 1251 336 1251 q 373 1234 373 1251 l 373 1114 q 420 1119 401 1119 q 454 1117 439 1119 q 481 1111 470 1114 q 503 1101 493 1107 q 520 1090 513 1095 q 533 1077 528 1085 q 543 1064 539 1069 q 549 1050 546 1059 q 553 1038 552 1042 q 556 1026 554 1034 q 558 1018 558 1019 q 559 1000 559 1012 q 524 924 559 960 q 455 888 488 888 q 428 903 437 888 l 420 916 q 409 939 415 926 q 399 959 403 953 q 390 973 396 965 q 374 989 383 981 l 374 673 q 549 577 474 629 q 577 541 567 555 q 596 497 587 526 q 605 435 605 469 q 582 318 605 379 q 524 205 559 256 q 452 114 488 154 q 382 47 416 74 l 382 -46 q 354 -111 382 -81 q 305 -140 327 -140 q 292 -125 292 -140 l 292 9 q 270 7 284 7 q 241 8 260 7 q 218 9 223 9 q 176 18 200 9 q 126 42 151 26 q 84 86 101 58 q 66 149 66 115 q 108 271 66 214 q 184 328 149 328 q 209 308 202 328 z "},"%":{"ha":1061,"x_min":68,"x_max":994,"o":"m 734 584 q 720 578 731 578 q 701 595 701 578 q 718 632 701 605 q 770 702 746 682 q 837 721 793 721 q 916 673 880 721 q 973 555 953 626 q 994 412 994 484 q 957 233 994 328 q 863 75 920 139 q 750 11 805 11 q 656 88 699 11 q 602 267 614 165 l 602 279 q 712 533 602 429 q 724 540 720 540 q 731 524 731 540 q 731 520 731 523 q 731 516 731 518 q 731 512 731 514 q 712 442 717 468 q 707 377 707 416 l 707 370 q 722 253 707 308 q 763 164 736 198 q 821 130 789 130 l 825 130 q 863 155 846 130 q 887 208 880 179 q 895 258 895 236 q 876 402 895 323 q 827 542 858 482 q 765 601 795 601 q 752 597 760 601 q 739 589 745 593 l 734 584 m 200 939 q 185 933 197 933 q 166 949 166 933 q 182 987 166 958 q 235 1057 212 1038 q 302 1076 259 1076 q 381 1028 345 1076 q 438 910 418 981 q 458 767 458 839 q 422 588 458 682 q 328 430 385 494 q 216 366 271 366 q 121 443 164 366 q 68 621 79 520 l 68 634 q 182 891 68 781 q 196 899 191 899 q 201 890 201 899 q 196 867 201 879 q 177 797 182 823 q 172 732 172 771 l 172 724 q 187 608 172 663 q 228 519 201 553 q 286 485 254 485 l 291 485 q 329 509 312 485 q 353 563 345 534 q 360 614 360 591 q 342 757 360 677 q 292 896 323 837 q 230 956 261 956 q 217 951 224 956 q 205 943 210 947 l 200 939 m 760 1056 q 783 1042 772 1056 q 794 1004 794 1028 q 787 971 794 987 l 326 11 q 298 -12 316 -12 q 274 2 286 -12 q 263 40 263 16 q 271 74 263 58 l 731 1031 q 760 1056 743 1056 z "},"&":{"ha":870,"x_min":75,"x_max":809,"o":"m 376 479 q 239 450 278 479 q 199 337 199 420 q 218 257 199 294 q 263 198 236 220 q 321 162 291 175 q 377 149 351 149 l 412 149 q 475 178 454 157 q 495 248 495 199 l 495 479 l 376 479 m 205 808 q 217 737 205 766 q 245 693 229 708 q 289 670 262 678 q 334 660 315 662 q 381 659 353 659 l 399 659 l 508 659 l 508 671 q 552 760 508 707 q 623 813 595 813 q 638 788 638 813 l 638 667 l 786 667 q 809 640 809 667 q 768 555 809 600 q 673 510 728 510 l 632 510 l 632 466 q 615 297 632 366 q 534 141 597 229 q 430 39 481 68 q 326 10 380 10 q 271 19 302 10 q 205 49 240 28 q 141 98 170 69 q 94 171 113 127 q 75 267 75 216 q 104 384 75 329 q 184 496 133 439 l 201 515 l 180 532 q 160 549 166 544 q 136 575 153 555 q 109 613 119 595 q 91 661 99 631 q 82 723 82 690 q 98 802 82 762 q 133 872 113 843 q 177 928 153 902 q 214 966 201 955 q 232 981 227 977 l 293 1023 q 397 1053 354 1053 q 457 1046 432 1053 q 495 1030 483 1039 q 513 1010 507 1022 q 521 991 520 998 q 522 978 522 985 l 522 967 q 492 881 522 924 q 435 838 461 838 q 411 860 418 838 l 404 876 q 365 923 387 911 q 299 936 342 936 q 272 930 286 936 q 241 910 257 924 q 216 870 226 897 q 205 808 205 844 z "},"'":{"ha":250,"x_min":73,"x_max":186,"o":"m 186 1088 l 142 779 q 127 754 140 764 q 99 745 114 745 q 73 771 73 745 l 73 1066 q 95 1098 73 1086 q 146 1109 118 1109 q 186 1090 186 1109 l 186 1088 z "},"(":{"ha":361,"x_min":68,"x_max":293,"o":"m 181 580 q 189 397 181 481 q 215 241 197 313 q 242 140 233 170 q 273 54 252 111 q 279 38 277 43 l 284 24 q 293 -24 293 2 q 269 -111 293 -71 q 218 -151 245 -151 q 178 -116 193 -151 l 169 -96 q 88 181 109 52 q 68 475 68 310 q 85 768 68 650 q 146 1017 103 886 q 199 1127 163 1080 q 259 1174 235 1174 q 275 1148 275 1174 q 269 1107 275 1134 l 251 1054 q 197 838 213 939 q 181 580 181 738 z "},")":{"ha":361,"x_min":68,"x_max":293,"o":"m 180 444 q 172 626 180 542 q 146 780 163 710 q 119 882 129 850 q 88 968 109 914 q 82 985 84 980 l 77 1000 q 68 1048 68 1021 q 92 1134 68 1095 q 143 1174 116 1174 q 183 1139 168 1174 l 192 1119 q 273 842 252 971 q 293 548 293 713 q 275 255 293 373 q 215 6 258 138 q 161 -104 197 -57 q 102 -151 125 -151 q 86 -125 86 -151 q 92 -84 86 -111 l 110 -31 q 164 185 148 85 q 180 444 180 286 z "},"*":{"ha":455,"x_min":79,"x_max":399,"o":"m 165 718 l 165 736 q 194 774 165 758 q 252 789 224 789 q 280 774 280 789 l 280 770 l 271 736 q 256 624 256 677 q 297 679 277 659 q 326 703 318 700 q 338 707 334 707 q 377 644 355 688 q 399 573 399 601 q 390 555 399 555 l 347 555 q 294 541 321 555 q 365 463 336 511 l 372 448 q 376 433 376 440 q 347 369 376 404 q 299 333 319 333 q 287 347 289 333 l 280 382 q 252 465 275 416 q 228 342 252 403 l 222 326 q 206 317 218 317 q 147 346 182 317 q 111 394 111 375 q 115 404 111 399 l 135 423 q 191 500 172 460 q 148 492 163 492 q 96 500 123 492 q 79 557 79 509 q 89 638 79 596 q 109 681 99 681 q 111 680 110 681 l 129 656 q 193 600 162 615 q 189 610 192 602 q 184 621 185 618 q 181 632 184 624 q 177 643 178 640 q 174 654 176 646 q 171 666 172 661 q 168 677 170 670 q 166 690 167 684 q 165 704 165 696 q 165 718 165 711 z "},"+":{"ha":551,"x_min":69,"x_max":484,"o":"m 235 431 l 96 431 q 76 450 83 431 q 69 496 69 469 q 76 541 69 522 q 96 560 83 560 l 235 560 l 235 776 q 247 806 235 795 q 277 817 260 817 q 306 806 294 817 q 319 776 319 795 l 319 560 l 458 560 q 477 541 470 560 q 484 496 484 522 q 477 450 484 469 q 458 431 470 431 l 319 431 l 319 220 q 307 191 319 201 q 277 180 294 180 q 247 191 260 180 q 235 220 235 201 l 235 431 z "},",":{"ha":297,"x_min":63,"x_max":224,"o":"m 224 109 q 212 51 224 82 q 183 -5 200 20 q 147 -51 165 -30 q 115 -84 129 -72 q 98 -96 101 -96 q 77 -76 88 -96 q 66 -39 66 -56 q 71 -23 66 -28 l 85 -12 q 91 -7 86 -11 q 98 -1 96 -3 q 103 4 99 0 q 109 10 107 7 q 112 18 110 13 q 115 27 114 22 q 115 39 115 33 l 115 43 q 79 131 115 83 l 66 146 q 63 157 63 151 q 92 216 63 182 q 148 250 121 250 q 161 247 155 250 q 186 222 178 231 q 205 197 194 214 q 220 159 216 180 q 224 109 224 138 z "},"-":{"ha":551,"x_min":71,"x_max":486,"o":"m 98 433 q 78 452 85 433 q 71 497 71 471 q 78 543 71 524 q 98 562 85 562 l 460 562 q 479 543 472 562 q 486 497 486 524 q 479 452 486 471 q 460 433 472 433 l 98 433 z "},".":{"ha":271,"x_min":43,"x_max":179,"o":"m 43 140 q 67 236 43 194 q 123 278 92 278 q 163 251 148 278 q 179 183 179 224 q 155 87 179 130 q 99 45 131 45 q 59 73 75 45 q 43 140 43 100 z "},"/":{"ha":660,"x_min":68,"x_max":609,"o":"m 126 0 q 86 31 104 0 q 68 92 68 62 q 74 120 68 108 l 518 1091 q 546 1112 528 1112 q 589 1085 568 1112 q 609 1027 609 1057 q 603 1000 609 1013 l 159 28 q 144 8 153 17 q 126 0 134 0 z "},":":{"ha":281,"x_min":77,"x_max":213,"o":"m 77 615 q 101 710 77 668 q 157 753 125 753 q 197 726 181 753 q 212 659 212 699 q 188 563 212 605 q 132 521 163 521 q 92 547 107 521 q 77 615 77 573 m 77 104 q 101 200 77 158 q 157 242 125 242 q 197 215 182 242 q 213 148 213 188 q 189 52 213 94 q 133 10 165 10 q 93 37 109 10 q 77 104 77 64 z "},";":{"ha":315,"x_min":65,"x_max":244,"o":"m 79 627 q 103 723 79 681 q 159 765 127 765 q 199 738 183 765 q 214 671 214 711 q 190 575 214 617 q 134 533 165 533 q 94 560 109 533 q 79 627 79 587 m 173 216 q 203 204 191 216 q 224 168 218 180 q 237 134 231 157 q 244 88 244 112 q 239 42 244 64 q 226 6 233 20 q 210 -19 219 -7 q 196 -35 201 -31 q 189 -41 192 -39 q 87 -102 113 -102 q 84 -101 85 -102 q 71 -84 76 -98 q 65 -55 65 -70 q 75 -30 65 -37 l 89 -26 q 123 22 117 -16 q 125 24 123 22 q 126 26 126 25 l 126 45 q 103 125 126 75 l 94 144 q 92 152 92 150 q 120 194 92 172 q 173 216 149 216 z "},"<":{"ha":646,"x_min":87,"x_max":598,"o":"m 214 566 l 576 325 q 591 292 585 319 q 596 234 596 265 q 581 173 596 173 l 576 173 l 102 492 q 87 562 87 503 q 104 640 87 629 l 578 958 q 583 959 581 959 q 598 897 598 959 q 593 839 598 866 q 578 807 587 812 l 214 566 z "},"=":{"ha":682,"x_min":72,"x_max":614,"o":"m 109 258 q 84 283 93 258 q 75 342 75 309 q 84 401 75 376 q 109 427 93 427 l 580 427 q 605 402 596 427 q 614 342 614 377 q 605 283 614 308 q 580 258 596 258 l 109 258 m 106 565 q 81 590 90 565 q 72 649 72 615 q 81 708 72 683 q 106 732 90 732 l 577 732 q 602 708 593 732 q 611 649 611 683 q 602 590 611 614 q 577 565 593 565 l 106 565 z "},">":{"ha":646,"x_min":98,"x_max":609,"o":"m 483 526 l 119 768 q 104 800 109 773 q 98 858 98 827 q 114 920 98 920 q 119 918 116 920 l 592 600 q 609 523 609 589 q 595 453 609 464 l 121 134 l 116 134 q 100 195 100 134 q 106 253 100 226 q 121 286 111 279 l 483 526 z "},"?":{"ha":612,"x_min":99,"x_max":544,"o":"m 194 96 q 218 192 194 150 q 274 234 242 234 q 314 207 298 234 q 330 140 330 180 q 306 44 330 86 q 250 2 281 2 q 210 29 225 2 q 194 96 194 56 m 247 980 q 193 969 215 980 q 163 945 172 958 q 147 921 155 932 q 130 909 138 909 q 109 918 119 909 q 99 939 99 926 q 104 955 99 946 l 113 972 q 153 1036 136 1012 q 193 1085 170 1061 q 245 1122 217 1110 q 307 1134 273 1134 q 422 1096 368 1134 q 510 983 475 1058 q 544 810 544 908 q 532 709 544 754 q 501 635 520 664 q 457 575 482 606 q 407 518 431 544 q 356 452 382 492 q 313 365 330 411 l 305 342 q 294 332 300 332 q 274 349 284 332 q 264 385 264 367 q 267 398 264 392 l 272 412 q 310 490 286 454 q 352 545 334 525 q 383 597 370 564 q 397 671 397 629 q 353 893 397 806 q 247 980 309 980 z "},"@":{"ha":880,"x_min":68,"x_max":812,"o":"m 333 488 q 354 390 333 430 q 410 351 374 351 q 471 387 444 351 q 512 476 498 423 q 526 583 526 528 q 506 677 526 640 q 454 713 486 713 q 368 647 404 713 q 333 488 333 580 m 466 99 q 556 112 517 99 q 617 144 595 125 q 655 182 639 163 q 688 215 671 201 q 722 228 704 228 q 749 218 737 228 q 760 195 760 208 q 758 184 760 189 l 741 155 q 697 92 723 122 q 637 35 671 62 q 556 -9 602 7 q 460 -25 510 -25 q 180 138 291 -25 q 68 546 68 300 q 120 836 68 704 q 262 1043 173 968 q 455 1118 351 1118 q 592 1089 528 1118 q 705 1005 656 1060 q 784 863 755 950 q 812 666 812 775 q 725 326 812 442 q 550 208 638 208 q 511 228 528 208 q 493 291 493 248 q 444 233 472 258 q 387 208 416 208 q 279 284 324 208 q 235 469 235 360 q 263 662 235 573 q 340 803 291 751 q 446 855 389 855 q 559 755 522 855 l 571 800 q 614 846 583 846 q 641 834 629 846 q 652 807 652 823 l 652 800 l 586 379 q 612 342 586 342 q 693 417 655 342 q 732 618 732 492 q 656 894 732 795 q 454 993 581 993 q 328 958 385 993 q 235 861 271 922 q 179 718 199 800 q 160 543 160 637 q 243 220 160 342 q 466 99 326 99 z "},"A":{"ha":939,"x_min":-3,"x_max":925,"o":"m 367 963 q 292 924 340 963 q 369 1038 309 965 q 457 1111 429 1111 q 525 1079 496 1111 q 574 988 554 1046 q 610 857 594 930 q 646 694 627 784 q 686 518 665 605 q 742 339 707 432 q 821 173 777 245 q 832 172 825 172 q 863 179 849 172 q 899 204 878 186 q 925 226 920 222 q 841 85 906 170 q 748 0 775 0 q 713 9 724 0 q 675 59 703 18 q 548 443 612 210 q 460 844 485 675 q 372 542 460 730 q 135 165 283 354 q 176 159 148 159 q 246 165 197 159 q 316 171 295 171 q 371 152 360 171 l 290 0 q 218 17 264 17 q 121 8 195 17 q -3 0 47 0 q 13 79 -3 39 q 55 156 28 120 q 114 238 81 192 q 182 331 147 283 q 250 443 216 378 q 309 581 283 509 q 351 752 335 653 q 367 963 367 851 z "},"B":{"ha":890,"x_min":41,"x_max":875,"o":"m 346 525 q 344 335 346 459 q 342 142 342 210 q 437 135 374 142 q 534 127 500 127 q 698 163 618 127 q 743 336 743 255 q 734 402 743 370 q 712 460 725 435 q 677 513 699 486 q 635 558 654 540 q 585 600 615 577 q 533 636 554 623 q 481 671 513 650 q 442 624 470 659 q 391 565 414 590 q 346 525 368 541 m 297 1082 q 398 1136 353 1117 q 482 1156 442 1156 q 604 1120 558 1156 q 649 1042 649 1085 q 563 831 649 949 q 675 769 621 808 q 774 678 729 730 q 847 556 820 626 q 875 411 875 486 q 830 251 875 329 q 718 120 785 174 q 569 33 650 66 q 417 0 489 0 q 303 6 376 0 q 193 13 230 13 q 41 -8 113 13 l 132 110 q 199 136 169 127 q 231 652 231 369 q 227 815 231 703 q 222 981 222 927 q 76 901 124 943 q 109 938 89 920 q 169 986 130 956 q 224 1027 209 1015 l 224 1072 l 311 1159 l 297 1082 m 305 1003 q 325 798 305 935 q 344 592 344 661 q 387 652 355 608 q 430 712 418 695 q 464 764 441 729 q 494 819 486 799 q 511 866 503 840 q 519 916 519 892 q 484 991 519 961 q 401 1021 450 1021 q 347 1013 378 1021 q 305 1003 315 1004 z "},"C":{"ha":845,"x_min":58,"x_max":794,"o":"m 662 779 q 454 1003 659 1003 q 343 958 394 1003 q 259 840 292 912 q 210 684 227 768 q 192 517 192 600 q 205 402 192 458 q 245 296 218 345 q 309 209 272 247 q 395 150 345 172 q 501 128 445 128 q 578 139 543 128 q 644 174 613 150 q 699 222 675 198 q 755 289 722 247 l 794 313 q 728 208 772 262 q 630 106 684 153 q 509 30 575 60 q 383 0 443 0 q 274 21 326 0 q 183 79 222 42 q 116 165 144 117 q 72 271 87 214 q 58 387 58 328 q 80 561 58 471 q 140 730 102 650 q 229 881 178 810 q 337 1005 281 953 q 454 1087 393 1057 q 572 1117 516 1117 l 581 1117 q 644 1112 617 1116 q 698 1096 671 1108 q 743 1062 726 1083 q 772 1005 761 1040 q 786 920 784 969 l 662 779 z "},"D":{"ha":951,"x_min":34,"x_max":896,"o":"m 376 -13 q 279 -6 335 -13 q 186 0 223 0 q 34 -21 106 0 l 125 97 q 192 123 162 115 q 224 640 224 356 q 220 802 224 690 q 215 968 215 914 q 69 888 117 930 q 102 925 82 907 q 162 973 123 943 q 217 1015 202 1002 l 217 1059 l 304 1146 l 290 1069 q 393 1091 326 1083 q 513 1099 461 1099 q 620 1068 565 1099 q 724 982 675 1037 q 811 856 772 926 q 873 697 850 785 q 896 523 896 610 q 886 436 896 483 q 857 337 877 389 q 807 236 836 286 q 734 141 777 186 q 639 62 690 96 q 519 7 587 28 q 376 -13 452 -13 m 298 990 q 317 566 298 922 q 336 142 336 210 q 495 118 401 118 q 581 121 526 118 q 658 124 635 124 q 731 257 699 174 q 764 423 764 340 q 736 649 764 547 q 653 827 709 750 q 508 947 598 905 q 298 990 417 990 z "},"E":{"ha":819,"x_min":58,"x_max":755,"o":"m 301 1114 q 408 1093 336 1114 q 534 1072 480 1072 q 721 1109 616 1072 l 640 983 q 524 956 581 956 q 410 976 481 956 q 302 996 338 995 q 312 675 307 793 q 363 661 331 673 q 427 649 396 649 q 589 679 481 649 l 507 553 q 405 536 437 536 q 359 543 385 536 q 319 553 333 551 q 336 144 336 174 q 391 135 354 142 q 462 123 427 127 q 533 118 497 118 q 755 161 636 118 l 674 35 q 525 3 606 3 q 401 16 479 3 q 292 29 323 28 q 217 25 248 29 q 173 18 187 22 q 121 0 159 14 q 58 -24 83 -15 l 130 104 q 193 132 150 119 q 198 173 195 151 q 202 225 200 195 q 205 279 203 255 q 208 344 206 303 q 210 410 210 385 q 213 485 211 434 q 215 560 214 535 q 176 551 195 560 q 114 513 157 543 q 186 641 157 601 q 223 665 212 660 q 227 911 227 804 l 227 962 l 227 986 q 192 977 210 983 q 144 960 175 971 q 90 941 113 948 l 162 1068 q 222 1093 184 1086 l 220 1099 l 308 1185 q 301 1114 302 1154 z "},"F":{"ha":724,"x_min":32,"x_max":737,"o":"m 491 107 q 389 -21 436 30 q 319 -46 371 -46 q 244 -36 283 -46 q 186 -13 205 -25 q 161 4 175 -6 q 140 18 147 14 q 124 27 133 23 q 107 31 115 31 q 79 26 83 28 q 32 -8 75 24 l 168 140 q 196 144 172 144 q 206 307 201 183 q 215 610 211 431 q 221 836 220 789 q 198 829 210 836 q 165 803 187 822 q 121 770 142 785 q 168 844 142 800 q 227 883 212 876 q 229 1122 229 966 l 229 1174 l 229 1198 q 194 1188 212 1194 q 146 1171 177 1183 q 92 1152 115 1160 l 178 1289 q 185 1294 180 1291 q 192 1299 190 1298 q 197 1303 193 1301 q 204 1306 201 1305 q 211 1309 207 1308 q 221 1312 216 1311 l 219 1318 l 242 1396 q 244 1378 243 1394 q 248 1348 245 1362 q 252 1328 250 1333 q 392 1310 287 1328 q 551 1292 496 1292 l 556 1292 q 622 1301 576 1292 q 701 1320 667 1311 q 737 1329 735 1329 l 656 1203 q 614 1185 628 1191 q 581 1174 600 1179 q 545 1168 561 1168 q 405 1183 502 1168 q 272 1198 307 1197 q 285 1076 273 1167 q 300 914 297 984 q 326 932 309 920 q 350 948 343 944 q 369 960 356 952 q 392 969 382 967 q 415 974 401 972 q 446 977 429 977 q 518 950 476 972 q 592 928 561 928 q 626 935 611 928 q 658 956 640 943 q 688 977 675 970 l 619 865 q 608 859 617 864 q 597 853 600 854 q 588 848 595 852 q 577 843 580 844 q 568 838 574 842 q 557 834 561 835 q 548 831 553 833 q 537 828 542 829 q 528 827 533 827 q 517 826 522 826 q 455 848 486 826 q 416 866 444 855 q 360 878 387 878 q 310 860 328 878 l 334 101 q 367 78 348 87 q 397 70 386 70 q 491 107 437 70 z "},"G":{"ha":969,"x_min":55,"x_max":961,"o":"m 846 296 q 809 387 846 342 q 716 457 773 431 q 599 484 659 484 q 546 471 569 484 q 497 434 524 458 q 451 399 471 410 l 576 587 q 615 602 592 592 q 657 616 638 611 q 698 621 675 621 q 794 608 748 621 q 879 570 841 595 q 939 505 916 545 q 961 416 961 465 q 920 277 961 345 q 814 161 879 210 q 672 75 749 112 q 518 19 594 37 q 380 0 441 0 q 308 21 351 0 q 222 80 266 41 q 141 165 178 118 q 79 271 103 212 q 55 387 55 330 q 82 595 55 488 q 159 793 109 701 q 272 959 208 886 q 413 1075 335 1032 q 569 1117 490 1117 l 578 1117 q 657 1109 624 1117 q 721 1082 690 1102 q 767 1021 751 1062 q 783 920 783 981 l 659 779 q 452 1003 659 1003 q 340 958 391 1003 q 257 840 289 912 q 207 684 224 768 q 189 517 189 600 q 226 375 189 448 q 313 249 262 302 q 415 162 363 197 q 498 128 467 128 q 565 131 532 128 q 640 140 599 134 q 716 158 681 146 q 781 188 751 171 q 828 233 811 205 q 846 296 846 261 z "},"H":{"ha":1221,"x_min":43,"x_max":1230,"o":"m 351 144 q 365 137 355 142 q 379 130 374 132 q 392 125 385 127 q 408 121 400 122 q 423 119 415 119 q 511 145 462 119 l 373 -30 q 243 0 300 -29 q 191 31 236 3 q 125 54 152 54 q 43 21 91 54 l 186 190 q 199 189 193 190 q 237 618 205 292 q 127 583 162 595 l 194 735 q 250 760 208 746 q 257 921 257 851 q 251 1020 257 978 q 229 1028 241 1028 q 160 985 206 1028 q 102 936 113 943 q 141 988 115 952 q 187 1051 167 1025 q 232 1106 207 1077 q 282 1154 258 1135 q 330 1177 307 1172 q 357 909 357 1177 q 356 787 357 829 q 486 806 454 806 l 487 806 l 508 806 q 675 793 569 806 q 835 780 782 780 q 869 922 848 850 l 1065 1128 q 1112 1137 1085 1137 q 1230 1105 1149 1137 l 1097 971 q 1035 998 1068 998 q 991 985 1013 998 q 949 784 964 888 q 1057 817 981 790 l 972 648 q 936 635 937 635 q 934 544 934 589 q 964 165 934 380 q 1017 123 989 123 q 1061 144 1038 123 q 1113 195 1085 164 q 1157 239 1140 226 q 1139 204 1146 217 q 1114 162 1132 192 q 1080 113 1095 132 q 1040 67 1065 93 q 992 25 1016 41 q 939 -2 969 9 q 878 -14 908 -14 q 833 72 850 -14 q 823 127 833 72 q 807 457 807 342 q 814 633 807 551 q 643 651 754 635 q 498 667 532 667 q 354 648 441 667 q 350 294 350 416 q 351 144 350 240 z "},"I":{"ha":534,"x_min":35,"x_max":468,"o":"m 319 125 q 380 106 358 106 q 468 132 418 106 l 330 -43 q 259 -35 290 -43 q 212 -16 229 -27 q 180 7 194 -4 q 151 26 166 18 q 117 34 136 34 q 35 0 83 34 l 195 179 q 216 499 199 266 q 234 841 234 732 q 228 940 234 898 q 206 948 218 948 q 137 905 183 948 q 79 856 90 863 q 141 945 102 882 q 215 1049 180 1008 q 288 1095 250 1089 q 315 826 315 1095 q 315 587 315 743 q 316 323 316 431 q 319 125 316 208 z "},"J":{"ha":783,"x_min":32,"x_max":785,"o":"m 524 911 q 528 628 524 830 q 532 321 532 427 q 534 219 532 286 q 535 123 535 153 q 536 122 536 123 q 477 58 536 113 q 361 -47 419 3 l 302 -98 q 278 -106 292 -100 q 251 -115 263 -112 q 225 -118 239 -118 q 152 -110 185 -118 q 92 -82 119 -101 q 48 -28 64 -63 q 32 54 32 6 l 32 63 q 37 122 32 94 q 48 171 41 150 q 68 215 55 193 q 92 253 81 238 q 122 288 102 268 q 153 319 141 309 q 187 351 164 330 q 221 382 210 372 q 168 172 168 252 q 184 98 168 127 q 232 53 200 68 q 298 34 264 39 q 381 28 332 28 l 400 28 q 429 493 400 151 q 457 930 457 835 q 427 940 450 932 q 395 950 403 947 q 370 957 387 952 q 343 963 354 962 q 323 964 332 964 q 241 931 288 964 l 383 1100 q 553 1072 445 1100 q 696 1044 662 1044 q 785 1070 735 1044 l 646 895 q 524 911 590 895 z "},"K":{"ha":1081,"x_min":37,"x_max":1070,"o":"m 317 532 q 317 323 317 470 q 320 125 317 208 q 381 106 359 106 q 469 132 420 106 l 331 -43 q 261 -35 291 -43 q 213 -16 231 -27 q 181 7 195 -4 q 152 26 168 18 q 119 34 137 34 q 37 0 85 34 l 196 179 q 220 519 200 270 q 239 878 239 769 q 233 977 239 935 q 212 985 223 985 q 142 942 189 985 q 84 892 96 899 q 146 982 107 918 q 220 1085 185 1045 q 293 1131 255 1126 q 320 863 320 1131 q 318 740 320 825 q 317 620 317 655 l 317 602 q 385 651 351 625 q 444 694 419 676 q 505 742 469 713 q 557 784 541 772 q 612 831 572 796 q 660 872 652 865 q 713 918 668 878 q 761 960 758 957 q 684 990 713 990 q 602 957 650 990 l 745 1126 q 819 1115 783 1126 q 877 1090 854 1104 q 928 1066 899 1077 q 982 1055 956 1055 q 1070 1081 1021 1055 l 932 906 q 792 941 854 907 q 525 677 659 778 q 693 371 590 532 q 850 175 796 210 q 882 163 864 163 q 928 180 902 163 q 973 216 954 197 q 1016 262 992 236 q 1050 297 1040 288 l 1059 286 q 993 202 1034 258 q 922 106 952 147 q 858 33 892 65 q 798 0 823 0 q 733 38 772 0 q 647 144 694 76 q 555 279 599 212 q 458 433 512 347 q 372 566 404 519 l 317 532 z "},"L":{"ha":795,"x_min":46,"x_max":783,"o":"m 320 193 q 439 170 352 193 q 591 146 526 146 q 783 182 684 146 l 703 33 q 581 11 648 11 q 441 28 530 11 q 317 47 352 46 q 270 46 291 47 q 228 42 250 45 q 195 37 206 39 q 160 28 184 36 q 128 19 135 21 q 89 5 121 16 q 46 -9 56 -6 l 117 142 q 187 175 147 165 l 233 1069 q 227 1168 233 1126 q 205 1176 216 1176 q 135 1133 182 1176 q 77 1084 89 1090 q 139 1173 100 1109 q 213 1277 178 1236 q 286 1322 248 1317 q 313 1054 313 1322 q 314 815 313 971 q 315 551 315 659 q 320 193 315 357 z "},"M":{"ha":1447,"x_min":-3,"x_max":1429,"o":"m 754 308 q 821 173 787 230 q 832 172 825 172 q 863 179 849 172 q 899 204 878 186 q 925 226 920 222 q 841 85 906 170 q 748 0 775 0 q 713 9 724 0 q 675 59 703 18 q 548 443 612 210 q 460 844 485 675 q 372 542 460 730 q 135 165 283 354 q 176 159 148 159 q 246 165 197 159 q 316 171 295 171 q 371 152 360 171 l 290 0 q 218 17 264 17 q 121 8 195 17 q -3 0 47 0 q 13 79 -3 39 q 55 156 28 120 q 114 238 81 192 q 182 331 147 283 q 250 443 216 378 q 309 581 283 509 q 351 752 335 653 q 367 963 367 851 q 292 924 340 963 q 369 1038 309 965 q 457 1111 429 1111 q 533 1069 501 1111 q 587 950 565 1028 q 626 787 608 871 q 670 586 643 703 q 727 381 696 469 q 871 951 871 631 q 796 911 844 951 q 873 1025 812 953 q 961 1097 933 1097 q 1029 1065 1000 1097 q 1078 975 1058 1033 q 1114 844 1098 917 q 1149 682 1131 771 q 1190 506 1168 593 q 1246 327 1211 420 q 1325 161 1281 233 q 1336 160 1329 160 q 1367 167 1353 160 q 1403 192 1381 174 q 1429 214 1424 210 q 1344 73 1410 157 q 1252 -12 1279 -12 q 1217 -3 1227 -12 q 1179 47 1207 5 q 1052 431 1116 198 q 964 831 989 663 q 908 600 964 743 q 754 308 851 457 z "},"N":{"ha":1078,"x_min":15,"x_max":1024,"o":"m 797 311 q 824 419 804 311 q 863 690 844 528 q 882 966 882 852 q 873 980 882 980 q 829 957 863 980 q 782 928 795 933 q 836 999 800 949 q 898 1081 872 1049 q 935 1113 924 1113 q 944 1088 944 1113 q 932 716 944 936 q 907 353 920 496 l 895 210 q 903 194 899 201 q 909 184 906 188 q 913 179 911 180 q 917 176 914 178 q 920 173 920 174 q 931 172 924 172 q 962 179 948 172 q 998 204 977 186 q 1024 226 1019 222 q 940 85 1005 170 q 847 0 874 0 q 788 11 814 0 q 737 57 761 22 q 637 241 693 122 q 533 477 582 361 q 436 704 485 594 q 343 881 388 813 q 264 949 298 949 q 260 867 260 913 q 272 700 260 798 q 298 516 283 602 q 325 321 313 431 q 336 123 336 212 q 391 106 374 106 q 483 140 433 106 q 463 105 483 137 q 410 31 442 74 q 353 -40 378 -13 q 256 -25 316 -40 q 169 8 197 -9 q 144 25 158 15 q 123 39 130 35 q 107 48 116 44 q 90 52 98 52 q 62 47 66 49 q 15 13 58 45 l 161 176 q 185 182 168 182 q 199 178 191 182 q 213 174 208 174 q 201 458 213 273 q 190 720 190 644 q 231 975 190 891 q 219 977 224 977 q 184 959 201 977 q 165 950 174 959 q 145 926 156 941 q 127 905 135 911 q 159 983 133 935 q 217 1068 184 1030 q 271 1105 250 1105 l 274 1105 q 365 1081 321 1105 q 448 1008 409 1056 q 520 904 486 960 q 590 769 554 847 q 655 622 625 692 q 725 464 686 552 q 797 311 764 375 z "},"O":{"ha":916,"x_min":53,"x_max":850,"o":"m 850 625 q 795 406 850 555 q 651 130 732 241 q 458 -7 553 -7 q 218 129 321 -7 q 92 399 140 232 q 53 608 53 528 q 178 950 53 780 q 480 1137 314 1137 l 482 1137 q 703 1031 609 1137 q 817 811 774 949 q 850 625 850 705 m 732 488 q 641 807 732 649 q 371 993 534 993 l 369 993 q 207 911 252 993 q 172 726 173 850 q 214 505 172 635 q 340 262 262 355 q 553 149 435 149 q 701 294 652 149 q 732 488 732 388 z "},"P":{"ha":680,"x_min":35,"x_max":644,"o":"m 311 991 q 315 826 315 936 q 316 500 315 728 q 339 524 319 500 q 387 587 359 547 q 444 673 416 627 q 491 775 471 720 q 510 876 510 831 q 482 987 510 939 q 402 1035 454 1035 q 362 1025 385 1035 q 326 1005 340 1015 q 311 991 311 995 m 316 451 l 316 323 q 319 125 316 208 q 380 106 358 106 q 468 132 418 106 l 330 -43 q 259 -35 290 -43 q 212 -16 229 -27 q 180 7 194 -4 q 151 26 166 18 q 117 34 136 34 q 35 0 83 34 l 195 179 q 216 499 199 266 q 234 841 234 732 q 228 940 234 898 q 206 948 218 948 q 137 905 183 948 q 79 856 90 863 q 141 945 102 882 q 215 1049 180 1008 q 288 1095 250 1089 q 309 1029 302 1095 q 324 1043 310 1029 q 360 1078 338 1057 q 409 1119 382 1099 q 469 1154 436 1139 q 529 1168 501 1168 q 613 1120 583 1168 q 644 1010 644 1073 q 610 857 644 940 q 528 706 576 774 q 432 580 480 637 q 350 487 384 522 q 316 451 316 452 z "},"Q":{"ha":1104,"x_min":53,"x_max":1086,"o":"m 610 79 q 458 -7 532 -7 q 218 129 321 -7 q 92 399 140 232 q 53 608 53 528 q 178 950 53 780 q 480 1137 314 1137 l 482 1137 q 703 1031 609 1137 q 817 811 774 949 q 850 625 850 705 q 795 406 850 555 q 713 228 756 304 q 711 220 711 225 q 747 171 711 201 q 839 117 783 140 q 939 94 894 94 q 963 100 950 94 q 991 121 975 106 q 1019 148 1007 136 q 1053 184 1031 161 q 1086 220 1074 208 q 1036 137 1067 182 q 968 52 1005 92 q 892 -16 932 11 q 823 -43 852 -43 q 775 -38 797 -43 q 741 -29 754 -33 q 707 -9 727 -24 q 679 13 687 5 q 646 44 671 20 q 610 79 621 68 m 732 488 q 641 807 732 649 q 371 993 534 993 l 369 993 q 207 911 252 993 q 172 726 173 850 q 214 505 172 635 q 340 262 262 355 q 553 149 435 149 q 701 294 652 149 q 732 488 732 388 z "},"R":{"ha":1048,"x_min":35,"x_max":1043,"o":"m 311 991 q 315 826 315 936 q 316 500 315 728 q 339 524 319 500 q 387 587 359 547 q 444 673 416 627 q 491 775 471 720 q 510 876 510 831 q 482 987 510 939 q 402 1035 454 1035 q 362 1025 385 1035 q 326 1005 340 1015 q 311 991 311 995 m 316 451 l 316 323 q 319 125 316 208 q 380 106 358 106 q 468 132 418 106 l 330 -43 q 259 -35 290 -43 q 212 -16 229 -27 q 180 7 194 -4 q 151 26 166 18 q 117 34 136 34 q 35 0 83 34 l 195 179 q 216 499 199 266 q 234 841 234 732 q 228 940 234 898 q 206 948 218 948 q 137 905 183 948 q 79 856 90 863 q 141 945 102 882 q 215 1049 180 1008 q 288 1095 250 1089 q 309 1029 302 1095 q 324 1043 310 1029 q 360 1078 338 1057 q 409 1119 382 1099 q 469 1154 436 1139 q 529 1168 501 1168 q 613 1120 583 1168 q 644 1010 644 1073 q 439 587 644 835 q 524 496 479 550 q 604 394 569 443 q 679 293 640 345 q 750 204 718 242 q 817 142 782 167 q 884 115 852 117 q 929 124 908 115 q 964 144 951 133 q 999 172 978 155 q 1039 198 1021 188 l 1043 193 q 1011 156 1034 184 q 964 100 988 127 q 907 45 939 74 q 837 0 876 17 q 760 -18 798 -18 q 685 34 734 -16 q 582 152 635 83 q 476 289 528 220 q 381 406 424 358 q 322 454 338 454 q 316 451 319 454 z "},"S":{"ha":663,"x_min":-21,"x_max":636,"o":"m 437 65 q 448 75 437 66 q 467 92 459 85 q 487 111 475 99 q 507 133 499 123 q 520 153 515 142 q 526 171 526 163 q 501 283 526 230 q 436 376 476 336 q 347 454 395 416 q 250 527 298 492 q 161 596 201 562 q 96 674 121 631 q 71 763 71 717 q 121 888 72 815 q 233 1020 170 960 q 355 1124 296 1080 q 439 1170 414 1168 q 527 1118 496 1170 q 559 999 559 1067 q 545 932 559 964 q 514 881 532 901 q 471 829 496 861 q 431 771 446 798 l 420 785 q 444 872 444 819 q 413 985 444 935 q 329 1036 381 1035 q 229 946 275 1000 q 168 846 182 892 q 195 797 169 827 q 263 732 222 767 q 354 656 304 697 q 453 571 404 616 q 544 481 503 526 q 611 388 585 437 q 636 297 636 340 q 612 233 634 273 q 543 132 590 193 q 467 35 496 71 q 376 -75 437 -2 q 203 -28 256 -37 q 138 -22 169 -22 q -21 -79 43 -22 q 47 11 3 -53 q 124 105 91 74 q 197 138 158 136 q 319 102 247 132 q 437 65 391 72 z "},"T":{"ha":783,"x_min":3,"x_max":822,"o":"m 431 965 q 443 631 431 884 q 455 270 455 378 q 458 73 455 155 q 519 53 497 53 q 607 79 557 53 l 469 -96 q 398 -88 429 -96 q 351 -68 368 -80 q 319 -46 333 -57 q 290 -27 305 -35 q 256 -19 275 -19 q 174 -53 222 -19 l 334 126 q 348 393 337 199 q 367 736 359 587 q 374 972 374 886 q 294 986 349 975 q 220 998 239 998 l 211 998 q 119 982 165 998 q 3 932 73 966 l 70 1088 q 149 1122 101 1112 q 230 1132 197 1132 q 238 1130 238 1132 q 363 1116 265 1130 q 530 1101 460 1101 q 670 1118 585 1101 q 822 1158 755 1135 l 746 1004 q 634 975 706 988 q 513 962 562 962 q 431 965 475 962 z "},"U":{"ha":1145,"x_min":3,"x_max":1163,"o":"m 219 836 q 208 912 219 880 q 177 961 196 945 q 139 985 158 978 q 99 993 119 993 q 60 974 79 993 q 41 965 50 974 q 21 941 32 956 q 3 920 11 926 q 64 1045 13 969 q 147 1122 116 1122 l 150 1122 q 197 1118 174 1122 q 249 1103 220 1114 q 298 1073 277 1091 q 334 1021 319 1054 q 348 944 348 987 q 371 713 348 838 q 433 472 393 587 q 535 280 473 357 q 669 203 598 203 q 799 572 762 387 q 836 993 836 758 q 777 1013 803 1013 q 695 979 743 1013 l 836 1148 q 911 1137 875 1148 q 969 1114 947 1126 q 1020 1090 991 1101 q 1075 1079 1049 1079 q 1163 1103 1116 1079 l 1025 928 q 940 944 1013 928 q 924 729 940 843 q 882 518 907 614 q 828 343 857 422 q 774 218 800 263 q 732 172 748 172 q 727 174 730 172 q 738 165 735 165 q 769 173 755 165 q 805 198 783 180 q 831 219 826 216 q 746 78 812 163 q 654 -7 681 -7 q 540 37 597 -7 q 436 151 483 80 q 348 313 389 222 q 279 497 307 404 q 235 680 251 591 q 219 836 219 768 z "},"V":{"ha":1141,"x_min":-2,"x_max":1158,"o":"m 722 174 q 733 165 730 165 q 764 173 750 165 q 800 198 779 180 q 826 219 821 216 q 742 78 807 163 q 649 -7 676 -7 q 614 2 625 -7 q 576 52 604 11 q 372 506 527 170 q 207 868 218 843 q 94 993 144 993 q 55 974 74 993 q 36 965 45 974 q 17 941 27 956 q -2 920 6 926 q 60 1045 8 969 q 142 1122 111 1122 l 145 1122 q 235 1079 189 1122 q 321 970 281 1037 q 410 807 361 904 q 498 617 458 709 q 593 412 539 525 q 691 220 646 300 q 730 365 724 341 q 759 480 736 389 q 787 596 783 571 q 805 689 791 621 q 821 793 819 757 q 828 884 824 830 q 831 993 831 938 q 772 1013 798 1013 q 690 979 738 1013 l 833 1148 q 907 1137 871 1148 q 965 1114 943 1126 q 1016 1090 987 1101 q 1070 1079 1044 1079 q 1158 1103 1112 1079 l 1020 928 q 935 944 1008 928 q 727 172 813 443 q 722 174 725 172 z "},"W":{"ha":1751,"x_min":-2,"x_max":1769,"o":"m 922 659 q 907 587 916 623 q 891 523 899 551 q 871 461 883 494 q 852 408 860 429 q 830 358 844 387 q 809 314 816 329 q 786 272 802 299 q 766 236 771 245 q 745 202 761 227 q 727 172 730 176 q 722 173 725 172 q 733 165 730 165 q 764 172 750 165 q 800 197 779 179 q 826 218 821 215 q 742 77 807 162 q 649 -7 676 -7 q 614 1 625 -7 q 576 52 604 10 q 372 506 527 169 q 207 867 218 842 q 94 992 144 992 q 55 973 74 992 q 36 964 45 973 q 17 940 27 955 q -2 919 6 926 q 60 1045 8 968 q 142 1121 111 1121 l 145 1121 q 235 1079 189 1121 q 321 970 281 1036 q 410 806 361 903 q 498 616 458 709 q 593 412 539 524 q 691 219 646 299 q 809 510 779 392 q 843 814 838 627 l 817 871 q 705 996 755 996 q 665 977 684 996 q 647 968 656 977 q 627 944 637 959 q 608 923 616 930 q 670 1049 618 972 q 753 1125 722 1125 l 755 1125 q 845 1083 799 1125 q 931 974 891 1040 q 1020 810 972 907 q 1109 621 1068 713 q 1203 416 1149 528 q 1301 223 1257 303 q 1357 347 1333 286 q 1395 473 1380 408 q 1419 592 1410 538 q 1433 723 1428 646 q 1439 852 1437 799 q 1442 996 1440 905 q 1383 1016 1409 1016 q 1301 983 1348 1016 l 1443 1152 q 1517 1141 1482 1152 q 1575 1116 1553 1130 q 1626 1092 1598 1103 q 1681 1081 1655 1081 q 1769 1107 1719 1081 l 1630 932 q 1546 947 1618 932 q 1520 732 1539 846 q 1477 522 1501 618 q 1427 346 1453 426 q 1377 221 1401 267 q 1337 176 1353 176 q 1333 177 1335 176 q 1343 169 1341 169 q 1375 176 1360 169 q 1410 201 1389 183 q 1436 222 1432 219 q 1352 81 1417 166 q 1259 -3 1286 -3 q 1225 5 1235 -3 q 1186 56 1215 14 q 922 659 1056 368 z "},"X":{"ha":1113,"x_min":14,"x_max":1122,"o":"m 671 583 q 725 462 686 551 q 792 311 763 373 q 852 201 822 250 q 864 182 857 193 q 878 163 872 171 l 882 156 q 893 148 890 148 q 924 155 910 148 q 960 180 939 162 q 986 201 981 198 q 902 60 967 145 q 809 -24 836 -24 q 774 -16 785 -24 q 736 35 764 -7 q 693 115 718 66 q 650 204 669 163 q 599 317 631 245 q 549 429 567 389 q 295 174 433 294 q 329 158 319 163 q 357 148 338 153 q 393 142 376 142 q 481 168 432 142 l 343 -7 q 254 7 294 -6 q 191 36 213 20 q 143 64 168 52 q 96 77 117 77 q 14 44 61 77 l 156 213 q 272 186 212 213 q 377 282 302 203 q 534 467 451 361 q 367 850 436 741 q 254 975 304 975 q 215 956 234 975 q 196 947 205 956 q 177 923 187 938 q 158 902 166 909 q 220 1028 168 951 q 302 1104 271 1104 l 305 1104 q 356 1090 330 1104 q 405 1055 382 1077 q 454 997 428 1034 q 503 923 481 960 q 552 831 524 886 q 601 731 580 777 q 652 621 623 686 q 781 815 741 744 q 844 962 821 886 q 788 985 827 971 q 736 1000 750 1000 q 654 966 702 1000 l 797 1135 q 871 1124 836 1135 q 929 1100 907 1114 q 980 1076 951 1086 q 1034 1065 1008 1065 q 1122 1090 1073 1065 l 984 916 q 932 918 941 916 q 901 930 923 919 q 859 852 879 888 q 812 778 838 817 q 771 719 785 739 q 721 650 758 699 q 671 583 685 602 z "},"Y":{"ha":1157,"x_min":-3,"x_max":1166,"o":"m 912 928 q 870 839 893 878 q 806 753 847 801 q 642 582 772 712 q 677 575 662 575 q 736 607 703 575 q 595 464 711 547 l 595 460 q 649 92 595 361 q 693 84 670 84 q 781 110 732 84 l 643 -65 q 553 -51 594 -64 q 490 -22 513 -38 q 443 6 468 -7 q 395 19 417 19 q 313 -14 361 19 l 456 155 q 505 150 479 155 q 505 171 505 156 q 517 302 505 207 q 530 433 530 397 q 530 440 530 436 q 530 448 530 445 q 530 454 530 452 q 412 615 485 480 q 278 848 309 804 q 117 966 195 966 q -3 900 75 966 l 102 1015 q 238 1104 195 1104 q 314 1076 277 1104 q 395 990 352 1047 q 453 882 407 975 q 548 700 499 789 q 621 593 597 610 q 743 751 717 713 q 833 947 793 827 q 840 968 837 958 q 781 989 806 989 q 699 956 746 989 l 841 1124 q 915 1114 880 1124 q 973 1089 951 1103 q 1024 1065 996 1076 q 1078 1054 1053 1054 q 1166 1079 1118 1054 l 1028 905 q 912 928 965 905 z "},"Z":{"ha":1162,"x_min":66,"x_max":1149,"o":"m 691 -33 q 444 3 616 -33 q 198 40 273 40 l 197 40 q 75 -33 138 40 q 368 497 182 255 q 779 939 500 670 l 694 897 q 609 882 654 882 q 512 896 566 882 q 414 927 458 910 q 319 958 371 944 q 227 972 267 972 q 168 958 199 972 q 107 922 138 943 q 66 895 77 901 l 190 1034 q 351 1107 267 1107 l 353 1107 q 592 1075 424 1107 q 836 1043 760 1043 q 1081 1111 989 1043 q 922 960 1015 1044 q 757 813 829 876 q 600 667 684 751 q 450 507 515 584 q 323 330 385 431 q 220 122 262 230 q 326 175 269 175 q 565 139 397 175 q 805 103 732 103 q 1149 196 1008 103 q 949 21 1017 59 q 691 -33 852 -33 z "},"[":{"ha":357,"x_min":81,"x_max":309,"o":"m 292 -273 l 121 -273 q 93 -260 106 -273 q 81 -228 81 -246 l 81 1076 q 90 1111 81 1096 q 109 1126 98 1126 l 285 1126 q 302 1079 302 1126 q 298 1046 302 1060 q 285 1031 293 1031 l 199 1031 l 199 -178 l 292 -178 q 304 -192 300 -178 q 309 -224 309 -206 q 304 -258 309 -243 q 292 -273 299 -273 z "},"\\":{"ha":660,"x_min":39,"x_max":592,"o":"m 39 1048 q 59 1105 39 1078 q 102 1133 79 1133 q 130 1112 120 1133 l 586 120 q 592 92 592 108 q 571 34 592 60 q 529 7 550 7 q 501 28 511 7 l 45 1020 q 39 1048 39 1034 z "},"]":{"ha":357,"x_min":81,"x_max":309,"o":"m 98 -273 q 86 -258 91 -273 q 81 -224 81 -243 q 85 -192 81 -206 q 98 -178 90 -178 l 191 -178 l 191 1031 l 105 1031 q 92 1046 97 1031 q 87 1079 87 1060 q 105 1126 87 1126 l 281 1126 q 300 1111 292 1126 q 309 1076 309 1096 l 309 -228 q 297 -260 309 -246 q 269 -273 284 -273 l 98 -273 z "},"^":{"ha":503,"x_min":73,"x_max":441,"o":"m 439 665 q 441 659 441 661 q 429 640 441 646 q 400 633 418 633 q 362 642 380 633 q 340 665 345 650 l 257 939 l 173 665 q 151 642 168 650 q 114 633 134 633 q 85 640 96 633 q 73 657 73 646 l 73 665 l 212 1079 q 254 1105 220 1105 q 302 1079 293 1105 l 439 665 z "},"_":{"ha":696,"x_min":62,"x_max":886,"o":"m 98 -176 q 72 -161 81 -176 q 62 -125 62 -145 q 72 -87 62 -103 q 98 -71 81 -71 l 850 -71 q 877 -86 867 -71 q 886 -123 886 -102 q 877 -160 886 -144 q 850 -176 867 -176 l 98 -176 z "},"`":{"ha":345,"x_min":56,"x_max":266,"o":"m 263 918 q 266 909 266 914 q 252 887 266 897 q 224 877 238 877 q 212 880 218 877 l 64 1006 q 56 1024 56 1013 q 83 1075 56 1048 q 132 1102 110 1102 q 151 1095 146 1102 l 263 918 z "},"a":{"ha":924,"x_min":-21,"x_max":907,"o":"m 349 771 q 275 739 323 771 q 352 831 292 772 q 439 889 412 889 q 507 863 478 889 q 556 791 536 838 q 593 686 576 745 q 628 556 609 627 q 668 415 647 484 q 725 272 690 347 q 804 139 760 197 q 814 138 808 138 q 846 144 831 138 q 881 164 861 150 q 907 181 902 178 q 829 67 888 134 q 743 0 770 0 q 700 9 716 0 q 657 47 683 18 q 531 355 594 169 q 443 675 467 541 q 354 434 443 585 q 117 133 266 283 q 158 128 130 128 q 228 133 179 128 q 298 137 277 137 q 353 122 342 137 l 272 0 q 200 14 244 14 q 103 7 177 14 q -21 0 30 0 q -8 56 -21 28 q 26 112 4 85 q 75 168 47 138 q 133 230 102 197 q 195 302 164 264 q 253 389 226 340 q 302 493 281 438 q 337 620 324 548 q 349 771 349 691 z "},"b":{"ha":841,"x_min":6,"x_max":840,"o":"m 311 425 q 310 272 311 372 q 308 118 308 173 q 402 112 339 118 q 499 106 465 106 q 663 135 583 106 q 708 273 708 208 q 699 327 708 300 q 677 373 690 353 q 642 415 665 393 q 600 451 620 436 q 550 485 581 467 q 499 514 519 503 q 446 541 479 525 q 408 504 435 532 q 357 457 380 476 q 311 425 334 437 m 262 871 q 448 929 382 929 q 569 901 524 929 q 614 838 614 873 q 528 669 614 764 q 640 620 587 650 q 740 547 694 589 q 813 450 785 505 q 840 334 840 394 q 795 205 840 268 q 683 100 751 143 q 535 31 615 57 q 382 5 454 5 q 269 10 342 5 q 158 15 195 15 q 6 -2 80 15 l 98 92 q 164 113 130 105 q 197 526 197 300 q 192 656 197 566 q 187 789 187 746 q 41 725 90 760 q 75 755 54 741 q 134 793 96 770 q 189 827 173 817 l 189 863 l 277 932 l 262 871 m 271 807 q 290 643 271 752 q 309 478 309 533 q 346 519 321 492 q 383 561 371 547 q 415 598 395 575 q 444 636 434 621 q 465 670 454 651 q 480 705 475 688 q 484 737 484 722 q 450 798 484 774 q 366 822 415 822 q 315 814 345 822 q 271 807 284 807 z "},"c":{"ha":848,"x_min":37,"x_max":774,"o":"m 642 625 q 434 804 642 804 q 322 769 373 804 q 239 677 271 734 q 189 553 207 621 q 172 414 172 484 q 262 195 172 286 q 481 104 353 104 q 614 134 561 104 q 735 232 667 164 l 774 252 q 706 167 752 211 q 603 85 660 123 q 477 24 545 48 q 349 0 408 0 q 193 42 264 0 q 79 155 121 83 q 37 311 37 227 q 60 450 37 378 q 120 585 82 522 q 209 706 157 649 q 316 805 260 764 q 434 871 372 846 q 551 895 496 895 l 560 895 q 624 892 596 895 q 680 878 652 888 q 725 851 707 868 q 754 805 743 834 q 766 736 766 776 l 642 625 z "},"d":{"ha":875,"x_min":-3,"x_max":859,"o":"m 339 -8 q 242 -3 298 -8 q 149 2 186 2 q -3 -15 71 2 l 89 79 q 155 100 121 92 q 188 513 188 287 q 183 643 188 553 q 178 777 178 733 q 33 712 81 747 q 66 742 45 728 q 125 780 86 757 q 180 814 165 804 l 180 849 l 268 919 l 254 857 q 357 874 289 868 q 477 881 425 881 q 610 842 541 881 q 734 741 679 803 q 824 593 789 678 q 859 420 859 507 q 841 320 859 374 q 781 207 823 266 q 681 101 739 149 q 533 23 623 54 q 339 -8 444 -8 m 262 794 q 281 455 262 739 q 300 116 300 170 q 458 96 363 96 q 544 99 489 96 q 621 101 599 101 q 695 208 663 142 q 727 340 727 273 q 700 521 727 439 q 617 664 672 602 q 471 760 562 726 q 262 794 380 794 z "},"e":{"ha":812,"x_min":33,"x_max":731,"o":"m 277 895 q 384 879 312 895 q 510 863 456 863 q 696 892 589 863 l 615 792 q 499 770 557 770 q 387 786 458 770 q 278 802 315 802 q 283 692 278 781 q 288 546 288 604 q 342 535 311 546 q 402 525 374 525 q 564 549 456 525 l 483 448 q 380 434 411 434 q 335 440 361 434 q 294 448 309 446 q 303 250 294 363 q 311 121 311 136 q 366 114 329 119 q 438 104 403 108 q 509 100 473 100 q 731 134 612 100 l 650 33 q 500 8 582 8 q 379 19 456 8 q 268 29 301 29 q 193 26 223 29 q 149 20 163 23 q 97 5 135 17 q 33 -14 60 -6 l 105 89 q 168 111 125 101 q 191 454 191 235 q 152 447 171 454 q 90 416 132 439 q 161 518 132 486 q 199 538 185 533 q 200 639 199 572 q 202 734 202 705 l 202 795 q 168 787 185 792 q 120 774 150 783 q 66 758 90 765 l 138 860 q 197 882 163 876 l 200 893 l 283 954 q 277 895 277 924 z "},"f":{"ha":755,"x_min":34,"x_max":739,"o":"m 519 685 q 449 706 496 685 q 362 726 403 726 q 312 712 330 726 l 312 105 q 355 87 326 94 q 399 80 385 80 q 493 110 439 80 q 391 7 438 48 q 321 -12 372 -12 q 238 -3 275 -12 q 180 18 200 7 q 141 39 161 30 q 109 49 122 49 q 81 45 85 46 q 34 18 77 43 l 170 136 q 198 140 174 140 q 215 380 207 189 q 223 693 223 572 q 200 688 212 693 q 167 667 189 682 q 123 641 144 652 q 170 699 146 667 q 229 731 204 720 q 230 829 229 765 q 231 922 231 893 l 231 983 q 196 975 214 980 q 148 962 178 970 q 94 946 118 953 l 180 1055 q 188 1060 183 1057 q 194 1064 192 1063 q 199 1067 195 1065 q 206 1069 203 1069 q 213 1072 209 1070 q 223 1074 218 1073 l 223 1081 l 244 1141 q 246 1126 245 1139 q 250 1102 248 1114 q 254 1086 252 1090 q 394 1072 289 1086 q 553 1058 498 1058 l 558 1058 q 624 1065 578 1058 q 703 1080 669 1073 q 739 1088 738 1087 l 658 987 q 547 959 581 959 q 409 971 506 959 q 274 983 311 983 q 288 887 274 961 q 302 755 302 814 q 328 770 311 760 q 352 783 345 780 q 371 792 358 786 q 394 800 385 798 q 417 804 404 802 q 448 806 431 806 q 521 784 479 802 q 594 766 564 766 q 627 772 612 766 q 660 789 642 779 q 690 806 677 800 l 621 717 q 608 711 618 715 q 594 705 597 706 q 582 700 591 703 q 569 694 573 696 q 557 691 565 693 q 544 687 549 688 q 532 686 539 686 q 519 685 526 685 z "},"g":{"ha":941,"x_min":36,"x_max":942,"o":"m 827 237 q 790 310 827 275 q 697 367 754 346 q 580 389 640 389 q 529 378 551 389 q 479 349 506 368 q 432 320 452 330 l 557 471 q 596 482 573 474 q 638 494 620 490 q 679 498 657 498 q 805 480 747 498 q 903 424 864 463 q 942 334 942 386 q 900 223 942 277 q 793 130 859 169 q 648 60 727 90 q 492 15 569 31 q 354 0 415 0 q 262 25 315 0 q 158 90 208 50 q 72 189 107 130 q 36 311 36 249 q 63 477 36 392 q 140 636 90 562 q 253 769 189 710 q 394 861 316 827 q 550 895 471 895 l 559 895 q 623 892 595 895 q 678 878 650 888 q 724 851 706 868 q 753 805 742 834 q 764 736 764 776 l 640 625 q 433 804 640 804 q 321 769 372 804 q 238 677 270 734 q 188 553 205 621 q 170 414 170 484 q 194 317 170 366 q 255 231 218 268 q 335 164 292 194 q 416 119 377 135 q 479 104 454 104 q 585 109 532 104 q 695 127 637 114 q 790 169 754 140 q 827 237 827 197 z "},"h":{"ha":1253,"x_min":20,"x_max":1207,"o":"m 854 -7 q 820 31 835 -7 q 798 130 805 69 q 787 251 791 191 q 784 370 784 311 q 791 511 784 444 q 617 524 728 511 q 475 538 506 538 q 331 523 416 538 q 329 381 331 476 q 327 239 327 286 q 328 178 327 218 q 328 119 328 138 q 342 114 332 118 q 356 108 352 110 q 369 104 361 106 q 385 101 378 102 q 400 100 392 100 q 488 120 438 100 l 350 -20 q 258 -9 299 -20 q 196 14 218 1 q 150 37 175 26 q 102 47 125 47 q 20 21 68 47 l 163 156 q 176 155 170 156 q 182 262 176 205 q 199 393 188 319 q 214 499 210 468 q 104 471 121 475 l 171 592 q 227 612 184 600 q 234 741 234 685 q 228 820 234 787 q 206 827 218 827 q 136 792 183 827 q 79 753 90 758 q 127 805 90 764 q 188 869 165 846 q 245 917 211 892 q 307 946 279 941 q 334 731 334 946 q 333 684 334 717 q 333 634 333 651 q 463 649 430 649 l 485 649 q 652 638 545 649 q 812 628 758 628 q 846 742 825 684 l 1042 907 q 1089 914 1063 914 q 1207 888 1128 914 l 1074 781 q 1012 802 1045 802 q 968 792 989 802 q 926 631 941 715 q 1034 657 957 636 l 949 523 q 933 517 947 522 q 913 511 920 512 q 912 475 913 498 q 911 439 911 452 q 941 136 911 309 q 994 103 966 103 q 1038 119 1015 103 q 1090 160 1062 135 q 1134 195 1118 185 q 1112 162 1121 175 q 1081 121 1102 149 q 1037 75 1059 94 q 987 35 1015 56 q 924 4 958 15 q 854 -7 890 -7 z "},"i":{"ha":500,"x_min":-5,"x_max":428,"o":"m 279 95 q 340 79 316 79 q 428 100 378 79 l 290 -40 q 219 -34 250 -40 q 172 -18 189 -27 q 140 0 154 -9 q 111 15 126 9 q 77 22 96 22 q -5 -5 43 22 l 155 138 q 174 418 155 240 q 194 667 194 595 q 188 747 194 713 q 166 753 178 753 q 97 719 143 753 q 39 680 50 685 q 88 733 59 699 q 138 795 117 768 q 189 844 159 821 q 248 870 218 867 q 275 655 275 870 q 275 465 275 589 q 276 253 276 340 q 277 172 276 224 q 279 95 279 119 z "},"j":{"ha":809,"x_min":11,"x_max":764,"o":"m 514 86 q 454 34 512 78 q 339 -50 396 -10 l 281 -90 q 256 -97 271 -92 q 230 -104 241 -101 q 204 -106 218 -106 q 109 -95 150 -106 q 39 -52 68 -83 q 11 31 11 -20 l 11 38 q 16 85 11 62 q 27 124 20 107 q 47 160 34 142 q 71 190 60 178 q 101 218 81 201 q 132 243 120 235 q 166 269 143 252 q 200 294 189 286 q 146 125 146 189 q 163 66 146 90 q 211 30 179 42 q 277 14 242 18 q 360 10 311 10 l 379 10 q 408 382 379 109 q 436 732 436 655 q 405 740 426 734 q 374 747 385 745 q 349 753 363 750 q 322 758 334 756 q 302 759 311 759 q 220 732 267 759 l 362 867 q 532 845 424 867 q 675 823 641 823 q 764 844 713 823 l 625 704 q 503 716 570 704 q 507 490 503 652 q 511 244 511 329 q 513 163 511 216 q 514 86 514 111 z "},"k":{"ha":1094,"x_min":0,"x_max":1033,"o":"m 488 540 q 597 370 530 463 q 736 203 665 277 q 844 129 808 129 q 901 148 870 129 q 969 199 932 167 q 1013 236 1005 231 l 1022 227 q 956 160 996 204 q 885 83 915 116 q 820 24 855 50 q 760 -2 785 -2 q 696 28 735 -2 q 609 114 657 59 q 518 222 562 168 q 420 345 475 275 q 334 451 366 414 l 279 424 q 280 346 279 401 q 280 256 280 290 q 281 175 280 228 q 283 98 283 122 q 344 83 324 83 q 432 104 382 83 l 294 -37 q 223 -30 254 -37 q 176 -15 193 -24 q 144 3 158 -5 q 115 19 130 12 q 81 25 100 25 q 0 -2 48 25 l 159 142 q 180 436 159 243 q 202 701 202 628 q 196 779 202 747 q 174 786 186 786 q 104 752 151 786 q 47 712 58 718 q 96 766 67 731 q 146 828 125 802 q 197 877 167 854 q 256 903 227 900 q 283 688 283 903 q 281 590 283 658 q 279 494 279 522 l 279 480 q 338 513 309 496 q 396 547 366 529 q 446 578 425 566 q 498 612 467 591 q 544 642 529 632 q 592 674 559 651 q 634 703 625 696 q 681 735 644 710 q 724 766 717 761 q 647 790 676 790 q 565 764 612 790 l 707 899 q 782 890 746 899 q 840 870 817 881 q 890 851 862 860 q 945 842 919 842 q 1033 863 983 842 l 895 723 q 755 751 819 723 q 488 540 620 619 z "},"l":{"ha":809,"x_min":52,"x_max":789,"o":"m 326 175 q 446 156 359 175 q 597 138 532 138 q 789 167 688 138 l 709 47 q 587 29 653 29 q 448 44 536 29 q 323 58 359 58 q 276 58 297 58 q 234 54 256 57 q 201 50 213 52 q 166 43 190 49 q 134 35 142 37 q 95 24 126 33 q 52 13 63 16 l 123 134 q 145 142 129 138 q 176 149 161 146 q 212 156 191 152 q 239 161 233 159 l 239 876 q 233 955 239 921 q 211 962 223 962 q 173 951 193 962 q 127 924 153 941 q 88 901 102 907 q 137 952 109 919 q 185 1010 165 986 q 234 1054 205 1034 q 292 1079 263 1075 q 319 864 319 1079 q 320 673 319 798 q 321 461 321 549 q 323 316 321 433 q 326 175 326 199 z "},"m":{"ha":1432,"x_min":-22,"x_max":1411,"o":"m 736 245 q 803 138 769 182 q 814 137 807 137 q 845 143 831 137 q 881 162 860 149 q 907 180 901 176 q 823 67 888 135 q 730 0 757 0 q 694 7 705 0 q 656 47 684 14 q 530 353 593 168 q 442 674 467 539 q 354 433 442 583 q 117 132 265 282 q 157 127 131 127 q 228 132 178 127 q 298 136 277 136 q 353 121 342 136 l 271 0 q 199 13 246 13 q 103 6 176 13 q -22 0 29 0 q -1 72 -22 35 q 52 143 19 108 q 124 220 85 179 q 203 314 163 260 q 275 430 242 368 q 328 580 308 492 q 349 770 349 669 q 274 739 323 770 q 351 822 290 770 q 441 875 413 875 q 517 843 486 875 q 570 751 549 812 q 608 625 591 690 q 652 467 625 559 q 709 304 678 375 q 852 760 852 504 q 778 728 826 760 q 854 819 794 762 q 943 877 915 877 q 1010 851 981 877 q 1060 779 1040 825 q 1096 674 1080 732 q 1131 545 1112 616 q 1172 404 1150 473 q 1228 261 1193 335 q 1307 128 1263 186 q 1318 127 1311 127 q 1344 132 1331 127 q 1366 142 1358 137 q 1389 157 1375 147 q 1411 170 1404 166 q 1326 58 1392 125 q 1234 -10 1261 -10 q 1198 -3 1208 -10 q 1160 37 1188 4 q 1034 344 1097 158 q 946 665 970 530 q 889 479 946 594 q 736 245 833 365 z "},"n":{"ha":1055,"x_min":-20,"x_max":989,"o":"m 860 164 q 892 134 878 134 q 896 134 892 134 q 927 140 913 134 q 963 160 941 146 q 989 178 985 175 q 905 64 970 132 q 812 -3 839 -3 q 702 42 741 -3 q 602 190 658 94 q 498 378 547 285 q 401 559 450 471 q 308 702 353 647 q 229 756 263 756 q 224 690 224 728 q 236 557 224 635 q 263 410 248 478 q 289 254 277 342 q 301 95 301 166 q 356 81 338 81 q 448 109 397 81 q 426 78 448 106 q 372 13 405 50 q 314 -47 339 -25 q 223 -30 281 -47 q 134 3 165 -13 q 109 17 123 9 q 87 28 94 24 q 72 35 81 32 q 55 38 63 38 q 27 34 31 35 q -20 7 23 33 l 126 137 q 150 142 132 142 q 164 139 155 142 q 178 136 173 136 q 166 363 178 215 q 155 572 155 511 q 195 777 155 710 q 184 778 187 778 q 149 764 165 778 q 117 744 136 764 q 92 720 98 724 q 153 821 102 760 q 236 881 204 881 l 239 881 q 345 852 294 881 q 436 780 397 823 q 520 667 476 736 q 598 536 565 598 q 678 389 631 473 q 762 245 725 304 q 789 333 769 245 q 828 549 809 420 q 846 770 846 678 q 838 781 846 781 q 794 762 828 781 q 747 739 760 743 q 799 795 766 757 q 855 858 831 833 q 890 883 879 883 q 909 867 909 883 q 897 570 909 745 q 872 279 884 394 l 860 164 z "},"o":{"ha":852,"x_min":26,"x_max":823,"o":"m 455 911 q 561 895 511 911 q 647 849 611 878 q 714 785 684 821 q 764 709 745 748 q 798 631 784 671 q 818 559 812 591 q 823 502 823 527 q 808 428 823 475 q 767 324 793 380 q 703 210 741 268 q 623 105 665 152 q 530 27 581 58 q 431 -3 479 -3 q 315 19 370 -3 q 221 77 260 41 q 148 160 181 113 q 92 254 114 206 q 55 348 70 302 q 33 430 39 395 q 26 488 26 466 q 151 762 26 627 q 453 911 287 911 l 455 911 m 526 121 q 609 149 572 121 q 665 218 645 176 q 695 306 685 260 q 705 393 705 351 q 614 648 705 522 q 344 797 506 797 l 342 797 q 244 782 284 797 q 183 737 205 766 q 153 670 162 707 q 144 583 144 633 q 155 503 144 549 q 186 405 166 456 q 240 302 207 353 q 314 212 273 252 q 410 146 354 171 q 526 121 465 121 z "},"p":{"ha":675,"x_min":0,"x_max":609,"o":"m 276 795 q 278 735 276 779 q 279 663 279 690 q 280 531 279 615 q 281 402 281 448 q 303 420 283 402 q 352 471 323 439 q 408 541 380 503 q 455 622 436 578 q 475 703 475 666 q 447 791 475 753 q 367 830 419 830 q 327 822 349 830 q 290 806 304 814 q 276 795 276 798 m 281 363 l 281 260 q 282 179 281 232 q 283 102 283 126 q 345 87 321 87 q 433 107 385 87 l 306 -37 q 220 -26 257 -37 q 165 -4 182 -16 q 125 19 147 9 q 82 29 104 29 q 0 2 48 29 l 159 145 q 179 425 159 247 q 199 675 199 603 q 193 754 199 720 q 171 760 182 760 q 101 726 148 760 q 43 686 54 692 q 93 741 64 705 q 142 802 121 776 q 193 851 163 829 q 252 878 223 874 q 273 825 267 878 q 289 836 275 825 q 325 864 302 848 q 374 897 347 880 q 433 924 401 913 q 494 936 466 936 q 576 899 543 936 q 609 810 609 861 q 575 682 609 750 q 493 561 541 614 q 397 462 445 507 q 315 390 349 417 q 281 363 281 363 z "},"q":{"ha":1074,"x_min":26,"x_max":1059,"o":"m 455 908 q 561 891 511 908 q 647 846 611 874 q 714 781 684 818 q 764 706 745 745 q 798 628 784 667 q 818 556 812 588 q 823 498 823 524 q 782 355 823 450 q 686 181 741 259 q 684 175 684 179 q 720 135 684 159 q 811 93 756 111 q 912 74 867 74 q 936 79 923 74 q 964 96 948 84 q 992 117 981 108 q 1025 146 1004 127 q 1059 174 1047 165 q 984 83 1034 134 q 876 -7 935 32 q 778 -47 817 -47 q 714 -37 741 -47 q 673 -16 687 -28 q 632 20 659 -5 q 583 62 605 45 q 431 -7 505 -7 q 315 15 370 -7 q 221 73 260 37 q 148 156 181 109 q 92 250 114 202 q 55 345 70 298 q 33 427 39 391 q 26 485 26 463 q 151 759 26 623 q 453 908 288 908 l 455 908 m 526 117 q 609 144 572 117 q 665 214 645 172 q 695 301 685 256 q 705 389 705 347 q 614 644 705 517 q 344 793 507 793 l 342 793 q 244 778 284 793 q 183 733 205 763 q 153 667 162 703 q 144 580 144 630 q 159 480 144 538 q 206 359 174 423 q 281 242 238 296 q 389 153 325 188 q 526 117 454 117 z "},"r":{"ha":1034,"x_min":0,"x_max":1008,"o":"m 276 795 q 278 735 276 779 q 279 663 279 690 q 280 531 279 615 q 281 402 281 448 q 303 420 283 402 q 352 471 323 439 q 408 541 380 503 q 455 622 436 578 q 475 703 475 666 q 447 791 475 753 q 367 830 419 830 q 327 822 349 830 q 290 806 304 814 q 276 795 276 798 m 281 363 l 281 260 q 282 179 281 232 q 283 102 283 126 q 345 87 321 87 q 433 107 385 87 l 302 -28 q 216 -19 253 -28 q 163 0 180 -10 q 125 20 146 11 q 82 29 104 29 q 0 2 48 29 l 159 145 q 179 425 159 247 q 199 675 199 603 q 193 754 199 720 q 171 760 182 760 q 101 726 148 760 q 43 686 54 692 q 93 741 64 705 q 142 802 121 776 q 193 851 163 829 q 252 878 223 874 q 273 825 267 878 q 289 836 275 825 q 325 864 302 848 q 374 897 347 880 q 433 924 401 913 q 494 936 466 936 q 576 899 543 936 q 609 810 609 861 q 404 472 609 670 q 505 383 451 437 q 600 281 558 329 q 685 190 642 234 q 770 120 728 146 q 849 94 812 94 q 892 97 873 94 q 928 108 911 100 q 953 121 944 116 q 979 141 962 127 q 1004 160 996 155 l 1008 156 q 989 131 1000 149 q 969 95 979 113 q 939 58 960 78 q 893 23 919 38 q 824 -2 868 8 q 724 -12 780 -12 q 649 27 699 -12 q 547 121 600 66 q 441 232 493 176 q 346 326 389 287 q 287 365 303 365 q 281 363 283 365 z "},"s":{"ha":669,"x_min":-34,"x_max":623,"o":"m 424 51 q 435 59 425 52 q 454 72 446 66 q 474 87 462 78 q 494 105 486 97 q 508 121 502 113 q 513 135 513 129 q 488 225 513 182 q 423 299 463 267 q 334 362 382 332 q 237 420 286 392 q 148 476 189 448 q 83 538 108 504 q 58 609 58 572 q 90 688 58 643 q 169 775 121 733 q 269 854 217 817 q 363 912 320 890 q 426 935 407 935 q 514 893 483 935 q 546 798 546 852 q 532 744 546 769 q 501 703 519 720 q 458 662 484 687 q 418 615 433 637 l 408 627 q 431 696 431 654 q 400 787 431 747 q 316 827 368 827 q 216 755 262 798 q 155 675 170 712 q 181 636 155 660 q 248 584 207 612 q 339 523 290 555 q 439 455 389 491 q 530 383 489 419 q 597 309 572 347 q 623 236 623 270 q 599 185 621 216 q 530 104 577 153 q 454 26 484 56 q 363 -62 424 -3 q 282 -41 307 -47 q 211 -27 258 -35 q 125 -20 163 -20 q -34 -65 30 -20 q 34 7 -10 -44 q 112 84 78 59 q 184 109 145 109 q 306 80 233 104 q 424 51 378 56 z "},"t":{"ha":840,"x_min":-16,"x_max":803,"o":"m 412 768 q 424 499 412 701 q 436 212 436 297 q 437 130 436 183 q 439 54 439 77 q 500 38 480 38 q 588 58 538 38 l 450 -81 q 379 -75 410 -81 q 332 -59 349 -68 q 300 -41 314 -50 q 271 -26 286 -33 q 237 -20 256 -20 q 155 -47 203 -20 l 315 96 q 335 449 315 197 q 355 774 355 701 q 272 784 327 774 q 201 794 217 794 l 192 794 q 101 781 146 794 q -16 741 55 768 l 51 866 q 130 893 82 885 q 211 901 178 901 q 219 899 219 901 q 345 888 247 899 q 511 877 442 877 q 651 890 566 877 q 803 922 736 903 l 727 799 q 615 776 687 787 q 494 765 543 765 q 452 766 480 765 q 412 768 425 768 z "},"u":{"ha":1168,"x_min":-26,"x_max":1131,"o":"m 190 673 q 178 734 190 708 q 148 773 167 760 q 110 792 129 786 q 70 798 90 798 q 31 783 50 798 q -1 763 18 783 q -26 739 -20 743 q 35 840 -16 779 q 118 901 87 901 l 121 901 q 181 895 151 901 q 244 876 211 890 q 298 832 277 862 q 319 759 319 802 q 354 576 319 680 q 440 387 389 473 q 554 239 492 300 q 667 179 616 179 q 743 326 714 254 q 786 479 772 398 q 803 627 800 559 q 807 798 807 694 q 748 814 773 814 q 666 787 714 814 l 807 922 q 899 908 856 922 q 978 880 942 894 q 1046 865 1014 865 q 1060 866 1053 865 q 1078 871 1067 867 q 1093 877 1088 875 q 1112 885 1097 878 q 1131 893 1127 891 l 996 746 q 911 759 983 746 q 886 544 911 659 q 827 342 861 429 q 758 199 793 256 q 703 141 723 141 q 698 142 701 141 q 709 136 707 136 q 740 141 726 136 q 776 162 754 147 q 802 179 798 176 q 718 66 783 134 q 625 -2 652 -2 q 493 73 570 -2 q 350 253 416 149 q 237 476 283 358 q 190 673 190 594 z "},"v":{"ha":1164,"x_min":-31,"x_max":1126,"o":"m 693 142 q 704 136 702 136 q 735 141 721 136 q 771 162 749 147 q 797 179 793 176 q 713 66 779 134 q 620 -2 647 -2 q 585 5 595 -2 q 547 45 575 12 q 342 410 498 140 q 178 698 187 680 q 65 798 116 798 q 26 783 45 798 q -6 763 13 783 q -31 739 -25 743 q 31 840 -21 779 q 113 901 82 901 l 116 901 q 205 867 159 901 q 292 780 252 833 q 380 649 332 726 q 469 497 429 571 q 564 333 510 423 q 662 179 617 243 q 766 511 745 427 q 802 798 802 654 q 743 814 768 814 q 661 787 709 814 l 804 922 q 895 908 852 922 q 974 880 938 894 q 1041 865 1009 865 q 1061 868 1050 865 q 1079 874 1072 871 q 1103 885 1087 878 q 1126 895 1118 892 l 991 746 q 906 759 978 746 q 698 141 784 357 q 693 142 696 141 z "},"w":{"ha":1777,"x_min":-31,"x_max":1740,"o":"m 893 531 q 878 473 886 502 q 862 422 869 445 q 842 373 854 399 q 822 330 830 347 q 800 290 814 313 q 779 255 786 267 q 757 221 772 243 q 736 193 741 199 q 716 165 732 186 q 698 141 700 144 q 693 142 696 141 q 704 136 700 136 q 735 141 721 136 q 771 161 750 147 q 797 178 791 175 q 712 66 778 134 q 620 -2 647 -2 q 585 5 595 -2 q 547 45 575 12 q 343 408 498 138 q 178 698 189 677 q 65 798 115 798 q 26 783 45 798 q -6 763 13 783 q -31 739 -24 743 q 31 840 -21 779 q 113 901 82 901 l 116 901 q 205 867 159 901 q 292 780 252 833 q 380 649 332 726 q 469 497 429 571 q 564 333 510 423 q 662 179 617 243 q 783 416 753 321 q 814 655 814 511 l 788 701 q 675 801 726 801 q 636 785 654 801 q 604 766 623 785 q 579 742 585 746 q 641 843 589 782 q 724 904 692 904 l 726 904 q 816 870 770 904 q 902 783 862 836 q 991 652 943 730 q 1080 500 1039 574 q 1174 337 1120 427 q 1272 182 1227 247 q 1349 329 1320 256 q 1392 482 1378 401 q 1409 630 1405 562 q 1413 801 1413 697 q 1354 817 1378 817 q 1272 790 1319 817 l 1413 925 q 1505 911 1461 925 q 1584 883 1548 897 q 1651 869 1619 869 q 1740 889 1689 869 l 1601 749 q 1516 762 1585 749 q 1491 547 1516 662 q 1432 346 1466 432 q 1363 202 1398 260 q 1308 144 1329 144 q 1305 145 1307 144 q 1303 145 1304 145 q 1314 139 1312 139 q 1341 144 1327 139 q 1363 154 1354 149 q 1386 168 1371 159 q 1407 182 1400 178 q 1323 68 1388 136 q 1230 0 1257 0 q 1196 7 1206 0 q 1157 48 1186 14 q 893 531 1024 304 z "},"x":{"ha":1131,"x_min":-16,"x_max":1093,"o":"m 642 467 q 695 370 657 441 q 763 250 734 299 q 823 161 793 200 q 835 146 827 155 q 848 132 843 138 l 853 125 q 864 119 862 119 q 896 124 881 119 q 931 144 910 130 q 957 161 951 158 q 872 49 938 117 q 780 -19 807 -19 q 745 -12 755 -19 q 707 28 735 -5 q 664 93 688 54 q 621 164 640 132 q 570 254 602 197 q 519 343 538 311 q 266 140 404 236 q 364 115 329 115 q 452 135 402 115 l 314 -5 q 224 6 265 -5 q 161 29 184 16 q 114 52 139 41 q 66 62 88 62 q -16 36 32 62 l 127 171 q 243 149 184 171 q 347 226 273 163 q 505 374 421 290 q 338 681 407 593 q 225 781 275 781 q 186 766 205 781 q 154 746 173 766 q 129 722 136 726 q 191 823 139 762 q 273 884 242 884 l 276 884 q 347 863 311 884 q 414 810 383 842 q 484 723 446 779 q 551 620 522 668 q 623 497 581 572 q 752 652 712 595 q 814 770 791 709 q 759 789 798 777 q 707 800 721 800 q 625 774 673 800 l 768 909 q 859 895 817 909 q 938 866 902 880 q 1005 852 973 852 q 1093 873 1043 852 l 955 733 l 940 733 q 902 735 911 733 q 871 745 893 736 q 829 683 850 711 q 782 623 809 654 q 743 576 755 591 q 692 520 730 562 q 642 467 654 479 z "},"y":{"ha":1174,"x_min":-34,"x_max":1136,"o":"m 882 738 q 846 674 865 702 q 790 611 827 646 q 720 548 753 576 q 612 461 686 520 q 647 456 630 456 q 706 481 673 456 q 564 366 680 433 l 564 363 q 618 68 564 284 q 663 62 643 62 q 751 83 701 62 l 612 -57 q 523 -46 564 -57 q 460 -23 482 -36 q 412 0 437 -10 q 365 11 387 11 q 283 -16 331 11 l 425 119 q 475 115 445 119 q 474 132 474 120 q 487 237 474 161 q 500 342 500 313 l 500 359 q 441 408 473 371 q 380 489 409 444 q 316 584 351 534 q 247 674 280 633 q 171 742 213 715 q 87 768 128 768 q -34 715 44 768 l 71 808 q 208 879 165 879 q 365 787 279 879 q 422 701 376 776 q 517 555 469 627 q 591 469 566 484 q 712 597 687 566 q 803 753 763 658 q 810 770 806 762 q 750 787 773 787 q 668 760 716 787 l 810 895 q 902 881 859 895 q 980 852 945 867 q 1048 838 1016 838 q 1136 859 1086 838 l 998 719 q 882 738 937 719 z "},"z":{"ha":1168,"x_min":22,"x_max":1106,"o":"m 1106 154 q 1030 93 1059 115 q 965 47 1002 71 q 899 12 928 24 q 830 -11 869 -1 q 747 -25 791 -22 q 648 -29 704 -29 q 401 0 572 -29 q 155 29 229 29 l 153 29 q 31 -29 94 29 q 126 145 74 63 q 237 298 179 227 q 376 445 296 369 q 538 590 456 522 q 735 748 620 659 l 650 715 q 566 703 609 703 q 371 739 500 703 q 184 775 241 775 q 124 763 155 775 q 64 734 94 751 q 22 713 34 717 l 146 824 q 308 883 224 883 l 310 883 q 548 857 380 883 q 792 831 716 831 q 935 850 865 831 q 1055 897 1006 869 q 894 775 988 844 q 726 656 800 707 q 565 537 652 605 q 411 406 478 469 q 281 262 345 344 q 177 95 218 181 q 282 137 224 137 q 521 109 353 137 q 762 80 689 80 q 1106 154 965 80 z "},"{":{"ha":448,"x_min":40,"x_max":415,"o":"m 286 693 q 174 469 286 521 q 256 387 227 439 q 286 239 286 334 l 286 -24 q 301 -136 286 -103 q 347 -168 317 -168 l 394 -168 q 409 -188 404 -168 q 414 -233 414 -207 q 409 -283 414 -262 q 394 -304 404 -304 l 296 -304 q 252 -290 275 -304 q 206 -248 229 -276 q 168 -170 183 -220 q 153 -56 153 -119 l 153 220 q 129 340 153 294 q 78 393 104 387 l 64 395 q 47 418 54 395 q 40 470 40 441 q 46 519 40 498 q 64 540 53 540 l 78 543 q 129 593 104 547 q 153 713 153 638 l 153 989 q 168 1103 153 1053 q 205 1181 182 1154 q 251 1222 228 1208 q 296 1236 275 1236 l 393 1236 q 409 1216 404 1236 q 415 1167 415 1195 q 410 1120 415 1140 q 393 1101 404 1101 l 347 1101 q 286 958 286 1101 l 286 693 z "},"|":{"ha":245,"x_min":68,"x_max":178,"o":"m 68 1063 q 84 1101 68 1087 q 123 1115 101 1115 q 161 1101 144 1115 q 178 1063 178 1087 l 178 24 q 161 -15 178 -1 q 123 -28 145 -28 q 84 -15 100 -28 q 68 24 68 -1 l 68 1063 z "},"}":{"ha":448,"x_min":40,"x_max":415,"o":"m 170 693 l 170 958 q 109 1101 170 1101 l 62 1101 q 46 1120 52 1101 q 40 1167 40 1140 q 46 1216 40 1195 q 62 1236 52 1236 l 159 1236 q 204 1222 180 1236 q 250 1181 227 1208 q 287 1103 273 1154 q 302 989 302 1053 l 302 713 q 326 593 302 638 q 377 543 351 547 l 391 540 q 409 519 402 540 q 415 470 415 498 q 408 418 415 441 q 391 395 401 395 l 377 393 q 326 340 351 387 q 302 220 302 294 l 302 -56 q 287 -170 302 -119 q 249 -248 272 -220 q 203 -290 227 -276 q 159 -304 180 -304 l 61 -304 q 46 -283 52 -304 q 41 -233 41 -262 q 46 -188 41 -207 q 61 -168 52 -168 l 109 -168 q 154 -136 138 -168 q 170 -24 170 -103 l 170 239 q 199 387 170 334 q 281 469 229 439 q 170 693 170 521 z "},"~":{"ha":585,"x_min":113,"x_max":562,"o":"m 230 868 q 290 852 258 868 q 345 817 322 836 q 395 781 368 798 q 443 765 422 765 q 465 767 457 765 q 485 783 473 770 q 511 825 498 797 l 526 854 q 535 865 530 865 q 553 836 545 865 q 562 775 562 807 q 557 739 562 753 q 508 650 532 672 q 441 629 483 629 q 393 639 418 629 q 347 665 368 650 q 306 695 326 680 q 266 721 286 711 q 229 732 245 732 q 208 729 215 732 q 189 713 200 727 q 163 672 177 700 l 150 644 q 142 637 147 637 q 123 666 133 637 q 113 726 113 696 q 117 757 113 743 q 165 847 142 825 q 230 868 189 868 z "},"":{"ha":67,"x_min":0,"x_max":0,"o":""},"":{"ha":0,"x_min":0,"x_max":0,"o":""},"":{"ha":0,"x_min":0,"x_max":0,"o":""},"":{"ha":0,"x_min":0,"x_max":0,"o":""},"":{"ha":0,"x_min":0,"x_max":0,"o":""},"":{"ha":0,"x_min":0,"x_max":0,"o":""},"":{"ha":0,"x_min":0,"x_max":0,"o":""},"":{"ha":0,"x_min":0,"x_max":0,"o":""},"":{"ha":0,"x_min":0,"x_max":0,"o":""},"":{"ha":0,"x_min":0,"x_max":0,"o":""},"":{"ha":0,"x_min":0,"x_max":0,"o":""},"":{"ha":0,"x_min":0,"x_max":0,"o":""},"":{"ha":0,"x_min":0,"x_max":0,"o":""},"":{"ha":0,"x_min":0,"x_max":0,"o":""},"":{"ha":0,"x_min":0,"x_max":0,"o":""},"":{"ha":0,"x_min":0,"x_max":0,"o":""},"":{"ha":0,"x_min":0,"x_max":0,"o":""},"":{"ha":0,"x_min":0,"x_max":0,"o":""},"":{"ha":0,"x_min":0,"x_max":0,"o":""},"":{"ha":0,"x_min":0,"x_max":0,"o":""},"":{"ha":0,"x_min":0,"x_max":0,"o":""},"":{"ha":0,"x_min":0,"x_max":0,"o":""},"":{"ha":0,"x_min":0,"x_max":0,"o":""},"":{"ha":0,"x_min":0,"x_max":0,"o":""},"":{"ha":0,"x_min":0,"x_max":0,"o":""},"":{"ha":0,"x_min":0,"x_max":0,"o":""},"":{"ha":0,"x_min":0,"x_max":0,"o":""},"":{"ha":0,"x_min":0,"x_max":0,"o":""},"":{"ha":0,"x_min":0,"x_max":0,"o":""},"":{"ha":0,"x_min":0,"x_max":0,"o":""},"":{"ha":0,"x_min":0,"x_max":0,"o":""},"":{"ha":0,"x_min":0,"x_max":0,"o":""},"":{"ha":0,"x_min":0,"x_max":0,"o":""},"":{"ha":0,"x_min":0,"x_max":0,"o":""},"":{"ha":0,"x_min":0,"x_max":0,"o":""},"":{"ha":0,"x_min":-67,"x_max":67,"o":"m -67 -305 q -47 -259 -67 -278 q 0 -239 -28 -239 q 47 -259 28 -239 q 67 -305 67 -278 q 47 -353 67 -333 q 0 -372 28 -372 q -47 -353 -28 -372 q -67 -305 -67 -333 m -47 -209 q -57 -199 -47 -209 q -67 -161 -67 -189 q -47 -114 -67 -134 q 0 -95 -28 -95 q 47 -114 28 -95 q 66 -161 66 -133 q 47 -209 66 -190 q 0 -228 28 -228 q -47 -209 -28 -228 z "},"":{"ha":0,"x_min":-211,"x_max":211,"o":"m 97 -354 q 87 -345 97 -354 q 77 -307 77 -335 q 97 -260 77 -279 q 144 -241 117 -241 q 192 -260 173 -241 q 211 -307 211 -279 q 192 -354 211 -335 q 144 -374 172 -374 q 97 -354 117 -374 m 97 -211 q 87 -201 97 -211 q 77 -163 77 -191 q 97 -116 77 -136 q 144 -96 116 -96 q 191 -116 172 -96 q 211 -163 211 -136 q 191 -211 211 -191 q 144 -230 172 -230 q 97 -211 116 -230 m -41 -207 q -51 -197 -41 -207 q -60 -159 -60 -187 q -41 -112 -60 -132 q 6 -93 -22 -93 q 54 -112 35 -93 q 73 -159 73 -132 q 54 -207 73 -186 q 6 -227 35 -227 q -41 -207 -22 -227 m -118 -354 q -128 -345 -118 -354 q -138 -307 -138 -335 q -118 -259 -138 -279 q -71 -239 -98 -239 q -23 -259 -43 -239 q -4 -307 -4 -279 q -23 -354 -4 -335 q -71 -374 -43 -374 q -118 -354 -98 -374 m -211 -161 q -192 -114 -211 -133 q -144 -94 -172 -94 q -97 -114 -117 -94 q -77 -161 -77 -133 q -97 -208 -77 -189 q -144 -228 -117 -228 q -192 -209 -173 -228 q -211 -161 -211 -189 z "},"":{"ha":0,"x_min":-202,"x_max":198,"o":"m 64 -305 q 84 -259 64 -278 q 132 -239 104 -239 q 179 -259 159 -239 q 198 -305 198 -278 q 179 -353 198 -333 q 132 -372 159 -372 q 84 -353 104 -372 q 64 -305 64 -333 m 83 -209 q 73 -199 83 -209 q 64 -161 64 -189 q 83 -114 64 -134 q 130 -95 102 -95 q 177 -114 157 -95 q 197 -161 197 -134 q 177 -209 197 -189 q 130 -228 157 -228 q 83 -209 102 -228 m 36 -206 l -198 -206 q -202 -152 -202 -180 q -198 -96 -202 -125 l 36 -96 q 39 -149 39 -125 q 36 -206 39 -174 z "},"":{"ha":0,"x_min":-229,"x_max":229,"o":"m 96 -305 q 116 -258 96 -277 q 163 -239 136 -239 q 210 -258 191 -239 q 229 -305 229 -277 q 210 -352 229 -332 q 163 -372 190 -372 q 115 -352 134 -372 q 96 -305 96 -333 m 96 -161 q 115 -113 96 -132 q 161 -94 134 -94 q 209 -114 189 -94 q 228 -161 228 -133 q 209 -209 228 -189 q 161 -228 190 -228 q 114 -208 133 -228 q 96 -161 96 -188 m -229 -93 l 60 -93 l 60 -206 l -23 -206 l -23 -376 l -136 -376 l -136 -206 l -229 -206 l -229 -93 z "},"":{"ha":0,"x_min":-67,"x_max":67,"o":"m -67 -162 q -48 -115 -67 -135 q 0 -95 -29 -95 q 48 -115 28 -95 q 67 -162 67 -134 q 48 -209 67 -190 q 0 -229 28 -229 q -48 -209 -28 -229 q -67 -162 -67 -190 z "},"":{"ha":0,"x_min":-151,"x_max":151,"o":"m 36 -209 q 27 -200 36 -209 q 17 -162 17 -190 q 36 -115 17 -134 q 83 -95 56 -95 q 131 -115 111 -95 q 151 -162 151 -134 q 131 -209 151 -190 q 83 -229 111 -229 q 36 -209 56 -229 m -131 -209 q -141 -200 -131 -209 q -151 -162 -151 -190 q -131 -115 -151 -134 q -83 -96 -111 -96 q -36 -115 -56 -96 q -16 -162 -16 -134 q -36 -209 -16 -190 q -83 -229 -56 -229 q -131 -209 -111 -229 z "},"":{"ha":0,"x_min":-153,"x_max":153,"o":"m 38 -208 q 28 -198 38 -208 q 18 -161 18 -189 q 38 -114 18 -133 q 86 -94 58 -94 q 133 -114 114 -94 q 153 -161 153 -133 q 133 -208 153 -189 q 86 -228 114 -228 q 38 -208 58 -228 m -47 -354 q -56 -344 -47 -354 q -66 -307 -66 -334 q -47 -259 -66 -279 q 0 -239 -28 -239 q 48 -259 28 -239 q 68 -307 68 -279 q 48 -354 68 -334 q 0 -374 28 -374 q -47 -354 -28 -374 m -133 -208 q -143 -198 -133 -208 q -153 -161 -153 -189 q -133 -114 -153 -133 q -86 -94 -114 -94 q -38 -114 -58 -94 q -18 -161 -18 -133 q -38 -208 -18 -189 q -86 -228 -58 -228 q -133 -208 -114 -228 z "},"":{"ha":0,"x_min":-137,"x_max":138,"o":"m 132 -195 l -132 -195 q -137 -142 -137 -166 q -132 -95 -137 -117 l 132 -95 q 138 -144 138 -120 q 132 -195 138 -168 z "},"":{"ha":0,"x_min":-151,"x_max":149,"o":"m -145 -95 l 145 -95 q 149 -151 149 -125 q 145 -206 149 -176 l 63 -206 l 63 -376 q 5 -379 39 -379 q -50 -376 -27 -379 l -50 -206 l -145 -206 q -151 -155 -151 -182 q -145 -95 -151 -136 z "},"":{"ha":0,"x_min":-67,"x_max":67,"o":"m -67 937 q -48 984 -67 964 q 0 1004 -29 1004 q 48 985 28 1004 q 67 937 67 965 q 48 890 67 909 q 0 871 28 871 q -48 890 -28 871 q -67 937 -67 909 z "},"":{"ha":0,"x_min":-67,"x_max":67,"o":"m -67 937 q -48 984 -67 964 q 0 1004 -29 1004 q 48 985 28 1004 q 67 937 67 965 q 48 890 67 909 q 0 871 28 871 q -48 890 -28 871 q -67 937 -67 909 z "},"":{"ha":0,"x_min":-141,"x_max":149,"o":"m 28 -326 q 46 -285 28 -302 q 88 -268 64 -268 q 132 -285 114 -268 q 149 -326 149 -302 q 132 -369 149 -351 q 88 -387 114 -387 q 46 -369 64 -387 q 28 -326 28 -351 m -42 -276 q -51 -268 -42 -276 q -60 -235 -60 -259 q -42 -192 -60 -210 q 0 -174 -24 -174 q 43 -192 25 -174 q 62 -235 62 -210 q 44 -277 62 -260 q 0 -294 26 -294 q -42 -276 -24 -294 m -123 -180 q -132 -172 -123 -180 q -141 -138 -141 -163 q -123 -95 -141 -113 q -81 -78 -106 -78 q -38 -95 -56 -78 q -20 -138 -20 -113 q -38 -180 -20 -163 q -81 -198 -56 -198 q -123 -180 -106 -198 z "},"":{"ha":0,"x_min":-67,"x_max":67,"o":"m -47 332 q -57 342 -47 332 q -67 379 -67 351 q -47 427 -67 407 q 0 446 -28 446 q 47 427 28 446 q 67 379 67 407 q 47 332 67 351 q 0 313 28 313 q -47 332 -28 313 z "},"":{"ha":0,"x_min":-50,"x_max":50,"o":"m 50 -362 l -50 -362 l -50 -92 l 50 -92 l 50 -362 z "},"":{"ha":559,"x_min":70,"x_max":493,"o":"m 478 537 l 86 537 q 70 641 70 585 q 80 745 70 713 l 472 745 q 493 646 493 690 q 478 537 493 581 z "},"":{"ha":0,"x_min":-179,"x_max":179,"o":"m 167 907 l -167 907 q -179 970 -179 937 q -167 1043 -179 1005 l 167 1043 q 179 973 179 1004 q 167 907 179 941 z "},"":{"ha":283,"x_min":68,"x_max":216,"o":"m 68 32 l 68 759 q 137 773 101 773 q 216 759 174 773 l 216 32 q 135 22 172 22 q 68 32 98 22 z "},"":{"ha":0,"x_min":-67,"x_max":67,"o":"m -67 897 q -48 944 -67 924 q 0 964 -29 964 q 48 945 28 964 q 67 897 67 925 q 48 850 67 869 q 0 831 28 831 q -48 850 -28 831 q -67 897 -67 869 z "},"":{"ha":0,"x_min":-67,"x_max":67,"o":"m -67 897 q -48 944 -67 924 q 0 964 -29 964 q 48 945 28 964 q 67 897 67 925 q 48 850 67 869 q 0 831 28 831 q -48 850 -28 831 q -67 897 -67 869 z "},"":{"ha":358,"x_min":68,"x_max":290,"o":"m 68 618 q 100 698 68 665 q 178 731 133 731 q 257 698 224 731 q 290 618 290 665 q 257 538 290 572 q 178 505 224 505 q 100 538 133 505 q 68 618 68 572 m 68 143 q 100 223 68 190 q 178 257 133 257 q 257 223 224 257 q 290 143 290 190 q 257 64 290 97 q 178 31 224 31 q 100 64 133 31 q 68 143 68 97 z "},"":{"ha":0,"x_min":0,"x_max":0,"o":""},"":{"ha":0,"x_min":0,"x_max":0,"o":""},"":{"ha":0,"x_min":-137,"x_max":136,"o":"m -131 -95 l 131 -95 q 136 -148 136 -121 q 131 -208 136 -172 l 61 -208 l 61 -378 q 0 -383 27 -383 q -52 -378 -26 -383 l -52 -208 l -131 -208 q -137 -153 -137 -180 q -131 -95 -137 -125 z "},"":{"ha":1050,"x_min":94,"x_max":1036,"o":"m 345 430 q 278 238 278 324 q 293 186 278 197 q 344 175 308 175 l 372 175 l 316 -2 l 252 -2 q 94 186 94 37 q 114 306 94 237 q 155 426 134 374 q 214 559 176 477 q 227 586 222 577 q 193 638 212 606 q 152 715 175 671 q 122 772 129 760 l 233 879 q 271 824 238 871 q 316 761 304 777 q 358 703 328 745 q 408 638 389 661 q 453 582 426 615 q 505 523 481 549 q 553 475 530 498 q 668 551 629 509 q 708 625 708 593 q 611 716 708 672 l 731 863 q 869 778 833 824 q 905 663 905 732 q 848 519 905 600 q 684 364 791 439 q 1036 129 814 260 l 937 -18 q 345 430 541 227 z "},"":{"ha":972,"x_min":74,"x_max":900,"o":"m 193 606 q 163 696 163 650 q 218 881 180 841 l 343 881 q 335 839 343 878 q 328 786 328 800 q 391 741 328 750 q 460 765 420 744 q 525 806 500 786 l 550 825 l 705 768 l 705 673 q 696 578 696 633 q 720 373 696 484 q 780 176 743 262 q 841 163 800 174 q 900 150 882 153 l 900 -33 q 496 14 648 14 q 288 -14 392 14 q 132 -63 255 -24 l 74 109 q 328 191 224 170 q 570 211 432 211 q 526 535 526 380 l 526 686 q 449 606 503 643 q 350 568 395 568 l 336 568 q 193 606 224 568 z "},"":{"ha":749,"x_min":54,"x_max":760,"o":"m 271 787 l 428 879 q 426 836 426 871 q 431 727 426 785 q 458 583 437 669 q 513 419 479 496 q 611 264 547 342 q 760 134 675 185 l 635 -16 q 519 110 590 23 q 421 254 448 197 q 389 283 404 276 q 358 290 375 290 l 343 290 q 285 265 311 290 q 241 198 258 241 q 212 105 223 155 q 193 -2 200 56 q 146 27 169 14 q 94 57 124 41 q 54 79 64 73 q 68 179 54 127 q 114 283 83 230 q 199 382 144 336 q 327 458 254 429 q 289 627 306 507 q 271 784 271 746 l 271 787 z "},"":{"ha":868,"x_min":46,"x_max":799,"o":"m 193 647 l 149 547 q 92 601 135 556 q 46 649 49 646 l 160 875 q 199 842 170 867 q 251 801 228 817 q 301 778 274 786 q 409 768 361 768 q 562 799 485 768 q 732 907 639 829 l 799 718 q 669 619 706 661 q 645 429 645 528 q 648 350 645 385 q 662 277 652 315 q 680 215 672 239 q 709 136 688 191 q 743 43 730 80 l 604 -45 q 513 204 546 89 q 480 427 480 319 q 493 533 480 473 q 531 638 506 593 q 464 593 505 607 q 386 578 422 578 q 270 603 331 578 q 193 647 209 627 z "},"":{"ha":995,"x_min":77,"x_max":979,"o":"m 667 652 q 517 600 612 600 q 429 610 463 600 q 352 644 395 620 q 275 680 308 667 q 238 627 269 667 q 202 583 208 587 q 77 645 125 595 l 233 899 l 371 810 q 526 759 457 759 q 664 784 615 759 q 667 807 665 793 q 670 829 669 821 q 674 849 671 837 q 681 873 677 861 l 849 873 q 825 773 831 817 q 820 664 820 728 q 837 491 820 576 q 874 350 854 406 q 928 208 895 294 q 979 67 962 121 l 849 -50 q 769 155 807 47 q 699 405 732 263 q 667 652 667 547 m 264 482 l 455 551 q 334 282 375 410 q 294 -2 294 154 l 141 -2 q 166 274 141 176 q 264 482 191 372 z "},"":{"ha":521,"x_min":41,"x_max":433,"o":"m 41 513 q 116 626 64 555 q 205 742 168 696 q 308 867 243 788 q 335 865 321 867 q 381 781 361 865 q 412 563 401 697 q 428 285 422 428 q 433 0 433 142 l 264 0 q 288 282 288 142 q 264 665 288 547 q 248 669 257 669 q 195 635 225 669 q 153 564 165 601 l 41 513 z "},"":{"ha":484,"x_min":67,"x_max":399,"o":"m 372 87 l 212 -19 q 152 253 165 143 q 138 583 138 363 q 67 715 138 683 l 208 892 q 321 809 268 867 q 399 691 375 751 l 299 575 l 279 589 q 264 485 264 543 q 281 345 264 418 q 318 223 298 272 q 355 135 338 174 q 372 87 372 95 z "},"":{"ha":919,"x_min":69,"x_max":843,"o":"m 272 557 q 277 365 277 470 q 277 313 277 365 q 262 0 277 139 l 94 0 q 130 407 130 223 q 129 485 130 448 q 126 550 127 522 q 120 612 124 578 q 113 665 115 647 q 103 719 111 683 q 94 768 96 755 q 81 824 91 781 q 69 879 72 866 l 237 879 q 246 807 243 850 q 252 744 249 764 q 468 789 342 789 q 576 777 524 789 q 660 742 629 765 q 703 844 662 747 l 843 739 q 744 383 744 568 q 810 54 744 195 l 671 -26 q 587 355 587 124 l 587 386 q 591 495 587 453 q 608 588 595 537 q 461 608 562 608 q 272 557 370 608 z "},"":{"ha":1059,"x_min":52,"x_max":994,"o":"m 334 577 q 350 426 334 501 q 388 300 366 351 q 430 217 410 250 q 460 181 450 185 q 545 176 510 176 q 670 197 618 176 q 753 253 722 218 q 817 349 785 288 q 836 448 836 389 l 836 452 l 836 458 q 835 500 836 484 q 832 545 834 517 q 823 591 829 572 q 807 630 817 610 q 780 661 797 650 q 741 675 763 672 q 731 675 741 675 l 722 675 q 694 672 706 675 q 671 658 682 669 q 654 638 661 647 q 638 605 648 629 q 624 564 629 581 q 606 509 618 547 q 584 443 593 471 q 556 464 572 451 q 534 480 539 476 q 517 493 528 484 q 504 503 506 502 q 494 512 502 505 q 484 521 486 519 q 475 531 483 522 q 464 543 467 539 q 451 558 461 547 q 494 662 473 617 q 546 752 515 706 q 608 827 576 798 q 684 874 640 856 q 779 893 728 893 q 934 740 874 853 q 994 483 994 627 q 885 94 994 256 q 635 15 744 40 q 382 -9 527 -9 q 232 262 277 131 q 187 585 187 393 q 52 648 97 600 l 208 907 l 363 834 q 334 577 334 765 z "},"":{"ha":507,"x_min":52,"x_max":2195,"o":"m 2195 258 m 331 277 q 312 470 331 378 q 259 594 294 562 q 243 598 252 598 q 193 576 222 598 q 145 527 165 554 l 52 482 q 68 616 52 549 q 114 738 85 682 q 191 828 144 793 q 294 863 238 863 q 342 857 317 863 q 420 715 394 836 q 447 391 447 594 l 331 277 z "},"":{"ha":749,"x_min":40,"x_max":1644,"o":"m 1644 271 m 475 197 q 451 326 456 250 q 447 593 447 402 q 245 557 319 557 q 106 606 159 557 q 40 775 54 656 l 160 901 q 216 772 170 815 q 327 728 262 728 q 433 755 380 728 q 526 828 486 781 q 554 851 534 843 q 595 860 573 860 q 642 845 623 860 q 661 802 661 831 q 658 777 661 788 q 600 526 600 637 q 652 173 600 339 q 665 58 665 120 q 623 -179 665 -74 q 532 -331 581 -284 q 509 -307 524 -319 q 492 -292 494 -295 q 511 -215 507 -261 q 516 -94 516 -169 q 475 197 516 35 z "},"":{"ha":823,"x_min":64,"x_max":1707,"o":"m 1707 433 m 566 240 q 541 357 546 291 q 536 600 536 423 q 334 564 408 564 q 196 613 248 564 q 130 782 143 663 l 250 908 q 305 779 259 822 q 416 735 351 735 q 523 762 469 735 q 616 835 576 788 q 643 858 624 850 q 684 867 663 867 q 731 852 712 867 q 751 809 751 838 q 747 783 751 795 q 689 533 689 644 q 743 216 689 384 q 573 16 743 71 q 200 -26 454 -23 q 70 -27 156 -27 l 64 -27 l 119 165 l 121 165 q 162 165 123 165 q 233 164 201 164 q 536 210 488 164 q 566 240 566 239 z "},"":{"ha":795,"x_min":-36,"x_max":732,"o":"m 294 879 q 555 789 421 864 q 732 633 689 715 q 371 -23 732 218 l 249 -23 q 283 18 256 -15 q 321 62 311 50 q 356 106 331 75 q 393 154 382 138 q 426 200 405 170 q 457 249 447 230 q 481 296 467 269 q 503 346 496 324 q 514 393 509 368 q 519 441 519 418 q 515 550 519 526 q 402 653 477 610 q 248 714 326 696 q 94 732 169 732 q 142 962 123 794 q 161 1274 161 1131 q 153 1381 161 1355 q 92 1320 117 1380 q 67 1192 67 1260 q 87 1118 67 1173 q 112 1032 106 1063 l 61 985 q 28 1056 53 1003 q -6 1130 3 1108 q -26 1187 -16 1152 q -36 1249 -36 1222 q 2 1421 -36 1342 q 113 1594 39 1501 q 167 1634 136 1619 q 219 1649 198 1649 q 269 1602 252 1649 q 300 1173 300 1480 q 298 1029 300 1097 q 295 921 297 960 q 294 879 294 882 z "},"":{"ha":1000,"x_min":52,"x_max":946,"o":"m 149 889 q 292 742 149 742 q 304 743 300 742 q 313 808 307 765 q 323 879 320 852 l 460 879 l 450 745 q 583 777 531 745 q 703 886 635 810 l 735 879 q 889 591 833 780 q 946 205 946 402 q 936 71 946 134 q 687 41 746 52 q 456 -58 538 12 q 413 -102 433 -77 l 245 -102 q 233 83 233 -15 q 240 252 233 170 q 263 446 248 334 q 282 592 278 557 q 243 588 264 588 q 101 634 150 588 q 52 771 52 680 l 149 889 m 432 586 q 426 538 431 575 q 420 491 421 501 q 416 452 419 481 q 411 408 412 422 q 409 368 410 393 q 407 319 407 342 q 406 271 406 296 q 416 111 406 190 q 488 145 459 132 q 538 166 517 158 q 588 181 559 175 q 636 190 618 186 q 706 199 654 193 q 797 212 758 206 q 772 444 797 337 q 684 694 747 551 q 648 667 673 686 q 608 640 623 648 q 568 618 594 631 q 509 598 542 606 q 432 586 475 591 z "},"":{"ha":847,"x_min":72,"x_max":800,"o":"m 138 791 l 257 867 q 256 847 257 860 q 255 829 255 835 q 274 742 255 785 q 321 672 294 700 q 373 626 349 644 q 412 604 397 608 q 495 715 469 658 q 520 819 520 772 l 631 879 q 662 792 637 864 q 696 693 688 720 q 726 603 705 667 q 756 503 747 539 q 778 415 766 467 q 795 323 790 364 q 800 245 800 282 q 668 14 800 67 q 391 -38 505 -24 q 124 -52 277 -52 q 158 9 142 -16 q 195 63 174 35 q 226 109 215 92 l 302 109 q 493 123 420 109 q 607 184 567 138 q 632 232 627 210 q 637 292 637 254 l 637 314 q 587 602 637 469 q 535 524 555 553 q 489 460 515 494 q 442 406 463 425 q 392 363 421 386 q 333 328 362 341 q 263 302 303 315 q 177 280 223 289 q 72 264 131 271 l 86 385 q 201 422 163 402 q 300 494 238 441 q 207 559 251 513 q 141 650 163 606 q 119 720 119 694 l 119 734 q 138 791 119 756 z "},"":{"ha":495,"x_min":56,"x_max":441,"o":"m 230 783 q 384 639 326 747 q 441 366 441 532 q 419 71 441 250 q 360 -257 397 -108 q 263 -310 313 -289 q 179 -330 214 -330 q 244 -26 219 -205 q 270 284 270 154 q 210 618 270 490 q 111 632 155 618 q 62 673 66 645 q 56 718 56 692 q 71 817 56 763 q 114 913 87 871 l 222 850 q 213 812 213 818 q 230 783 213 795 z "},"":{"ha":664,"x_min":68,"x_max":667,"o":"m 654 112 q 583 64 623 85 q 507 31 543 43 q 421 7 471 18 q 337 -9 372 -4 q 247 -23 302 -15 q 160 -37 192 -31 l 68 120 q 196 136 127 120 q 312 168 265 151 q 429 214 358 185 q 367 311 389 274 q 323 400 345 348 q 293 508 302 452 q 284 637 284 564 q 218 600 254 600 q 170 606 202 600 l 215 783 q 288 796 256 783 q 339 824 321 808 q 381 858 357 840 q 431 882 406 875 q 435 882 433 882 q 440 882 438 882 q 498 848 471 882 q 460 704 475 781 q 445 578 445 627 q 451 512 445 539 q 463 472 456 484 q 489 427 469 459 q 521 374 509 395 q 578 319 559 339 q 621 262 597 299 q 664 178 644 226 q 667 158 667 168 q 654 112 667 140 z "},"":{"ha":947,"x_min":59,"x_max":884,"o":"m 667 606 q 334 562 502 606 q 344 454 344 488 q 339 397 344 418 q 327 347 335 376 q 312 278 318 317 q 359 225 325 266 q 422 160 394 184 q 477 136 451 136 q 550 147 519 136 q 602 185 581 158 q 636 247 623 212 q 656 338 649 281 q 665 456 663 396 q 667 606 667 516 m 180 201 q 217 427 217 338 q 195 541 217 495 q 115 568 151 547 q 59 620 78 589 l 217 888 l 393 831 q 390 802 393 821 q 387 775 387 783 q 395 752 387 760 q 425 745 404 745 q 556 759 500 745 q 644 793 612 772 q 699 833 675 813 q 747 869 723 854 q 799 887 772 885 q 855 882 829 887 q 867 845 858 871 q 880 798 876 818 q 884 757 884 778 q 853 648 884 706 q 831 395 853 511 q 773 200 809 279 q 689 66 736 121 q 592 -16 642 10 q 493 -41 543 -41 q 372 0 422 -41 q 283 119 323 42 l 180 201 z "},"":{"ha":1000,"x_min":-36,"x_max":936,"o":"m 406 690 q 365 511 365 578 q 376 451 365 475 q 405 413 388 426 q 451 393 421 400 q 505 384 480 386 q 568 382 530 382 q 646 469 616 433 q 705 548 677 506 q 746 631 733 591 q 760 711 760 671 q 751 789 760 739 q 730 865 742 838 l 899 865 q 925 780 914 835 q 936 688 936 725 q 893 513 936 606 q 783 338 851 420 q 628 177 714 255 q 454 40 541 98 q 285 -57 366 -19 q 147 -104 204 -96 q -36 -57 14 -104 q 177 68 58 -9 q 408 235 297 144 q 263 335 313 262 q 214 513 214 408 q 277 774 214 631 l 406 690 z "},"":{"ha":802,"x_min":41,"x_max":747,"o":"m 597 -277 q 583 20 597 -168 q 539 401 568 207 q 478 661 511 595 q 428 639 469 656 q 364 610 387 622 q 298 568 341 599 q 212 494 255 536 q 243 424 212 458 q 306 370 274 389 l 220 288 q 103 406 156 323 q 41 557 50 488 q 259 731 126 636 q 505 876 392 827 q 518 876 509 876 q 532 877 527 877 q 586 846 559 877 q 668 623 634 772 q 719 298 703 473 q 741 -18 734 122 q 747 -277 747 -158 l 597 -277 z "},"":{"ha":822,"x_min":73,"x_max":771,"o":"m 771 128 q 525 -11 713 41 q 85 -63 336 -63 l 165 90 q 303 110 245 99 q 413 137 361 120 q 485 163 464 154 q 560 197 506 172 q 580 205 573 202 q 565 447 580 347 q 510 669 551 546 q 459 647 500 665 q 396 618 418 630 q 330 576 373 607 q 243 503 287 545 q 250 472 243 484 q 264 457 256 461 q 286 449 272 454 q 309 439 300 444 l 223 357 q 73 563 92 429 q 291 738 158 642 q 536 882 424 833 q 550 882 541 882 q 564 883 559 883 q 618 852 591 883 q 730 498 689 684 q 771 128 771 313 z "},"":{"ha":770,"x_min":85,"x_max":716,"o":"m 85 750 q 100 883 85 824 l 280 883 q 248 742 248 807 q 247 708 248 731 q 246 673 246 685 q 267 579 246 616 q 288 574 269 574 q 386 593 325 574 q 496 643 447 613 q 545 696 545 673 q 529 746 545 726 q 497 772 513 766 l 481 777 l 545 911 q 667 846 617 891 q 716 726 716 800 q 511 509 716 602 q 273 425 439 477 q 309 243 287 324 q 351 115 330 163 q 392 27 372 68 q 423 -56 411 -14 q 435 -146 435 -98 q 219 -326 383 -255 l 90 -242 q 148 -204 109 -228 q 208 -166 186 -180 q 249 -130 230 -151 q 271 -88 269 -109 q 175 139 214 26 q 118 359 137 252 q 92 556 99 466 q 85 750 85 646 z "},"":{"ha":887,"x_min":64,"x_max":812,"o":"m 621 887 q 686 862 654 878 q 747 821 718 845 q 794 763 777 797 q 812 690 812 728 q 801 631 812 659 q 774 582 791 604 q 730 537 758 559 q 677 499 703 515 q 615 465 652 484 q 550 435 578 447 q 481 405 522 422 q 417 376 441 387 q 500 318 452 342 q 590 280 549 294 q 669 255 632 267 q 729 225 707 242 q 751 183 751 208 q 542 -5 751 39 q 186 -53 346 -53 l 64 -53 l 143 94 q 363 110 245 94 q 574 155 482 127 q 407 198 492 155 q 255 310 321 241 q 148 471 189 378 q 106 656 106 564 q 107 677 106 663 q 108 697 108 690 q 136 850 108 741 l 304 850 q 273 759 286 808 q 259 678 259 709 q 303 525 259 603 q 325 519 306 519 q 436 538 363 519 q 571 587 509 557 q 633 639 633 616 q 624 674 633 658 q 604 701 616 691 q 579 719 591 711 q 559 730 567 726 l 550 732 l 621 887 z "},"":{"ha":929,"x_min":56,"x_max":869,"o":"m 279 525 q 457 160 370 376 q 544 -172 544 -56 l 439 -276 q 395 -88 422 -174 q 332 63 368 -3 q 262 180 296 130 q 184 296 228 231 q 112 411 140 360 l 279 525 m 833 848 q 869 730 869 796 q 816 557 869 646 q 779 505 800 529 q 738 465 758 481 q 691 432 719 449 q 644 405 663 415 q 593 380 625 395 q 545 355 562 364 l 426 389 q 669 652 587 492 q 671 674 671 663 q 644 711 671 702 q 543 666 602 695 q 444 616 485 637 q 348 578 403 595 q 241 562 293 562 q 116 621 175 562 q 56 726 56 680 q 64 760 56 746 q 142 856 84 785 q 213 944 201 926 q 220 896 217 927 q 225 842 222 865 q 236 794 229 818 q 259 756 243 770 q 302 743 276 743 q 312 744 305 743 q 323 745 319 745 q 433 757 378 745 q 533 788 488 769 q 617 827 578 807 q 699 866 657 846 q 772 893 741 885 l 774 893 q 804 875 783 893 q 833 848 826 857 z "},"":{"ha":816,"x_min":49,"x_max":746,"o":"m 195 828 q 212 742 195 782 q 254 702 229 702 q 303 714 275 702 q 402 766 374 750 q 470 809 431 781 q 539 869 509 836 l 608 869 q 715 607 685 716 q 746 398 746 497 q 720 118 746 292 l 612 -5 l 612 146 l 612 182 q 611 309 612 264 q 605 413 610 354 q 589 512 600 473 q 559 595 578 551 q 510 679 539 639 q 394 579 466 614 q 230 545 322 545 q 99 590 150 545 q 49 704 49 635 l 195 828 z "},"":{"ha":1294,"x_min":50,"x_max":1231,"o":"m 1034 632 q 1006 710 1034 679 q 937 741 978 741 l 1107 904 q 1167 847 1141 881 q 1205 777 1192 814 q 1225 703 1219 739 q 1231 631 1231 667 q 1228 583 1231 602 q 1188 467 1219 522 q 1116 367 1158 411 q 1017 282 1074 323 q 903 209 960 240 q 780 147 846 178 q 658 93 713 115 q 544 44 604 71 q 448 0 484 18 l 332 -53 q 272 -43 304 -53 q 317 127 303 57 q 332 265 332 198 q 324 344 332 306 q 307 411 317 382 q 276 474 296 441 q 240 528 256 507 q 195 579 224 549 q 149 625 166 609 q 99 671 132 640 q 50 715 65 701 q 189 857 109 781 q 323 721 254 797 q 429 589 391 645 q 539 660 495 613 q 584 753 584 707 q 572 789 584 769 q 546 823 561 810 l 751 865 q 767 812 760 847 q 774 758 774 778 q 754 651 774 697 q 699 576 734 606 q 628 526 664 547 q 547 481 592 505 q 476 434 502 456 q 486 387 480 412 q 495 347 492 363 q 497 309 497 332 q 496 282 497 293 q 493 261 496 271 q 490 246 491 250 q 484 228 488 241 q 476 208 479 215 q 624 250 546 218 q 768 323 703 282 q 888 407 833 363 q 978 486 944 450 q 1018 538 1011 521 q 1034 632 1034 580 z "},"":{"ha":974,"x_min":39,"x_max":940,"o":"m 370 859 q 444 726 435 779 q 549 766 498 739 q 662 838 599 793 q 753 898 726 882 q 805 891 785 898 q 839 862 825 885 q 903 320 839 487 q 929 240 919 283 q 940 169 940 197 l 798 34 q 738 340 760 195 q 717 648 717 484 l 517 540 q 540 371 540 447 q 119 -27 540 38 q 39 34 108 -17 q 97 56 74 47 q 152 78 120 64 q 206 103 184 92 q 254 132 227 115 q 297 165 280 149 q 332 204 314 182 q 359 249 349 226 q 376 302 370 273 q 382 363 382 331 q 362 507 382 433 l 264 494 l 211 631 l 295 663 q 291 689 295 675 q 281 714 286 703 q 266 742 277 725 q 250 767 255 760 q 232 792 245 774 q 218 812 219 810 l 370 859 z "},"":{"ha":305,"x_min":73,"x_max":186,"o":"m 186 1088 l 142 779 q 127 754 140 764 q 99 745 114 745 q 73 771 73 745 l 73 1066 q 95 1098 73 1086 q 146 1109 118 1109 q 186 1090 186 1109 l 186 1088 z "},"":{"ha":597,"x_min":63,"x_max":333,"o":"m 333 1092 l 289 782 q 273 758 286 767 q 245 748 260 748 q 218 774 218 748 l 218 1069 q 241 1101 218 1090 q 292 1112 264 1112 q 333 1095 333 1112 l 333 1092 m 178 1086 l 134 777 q 118 753 131 762 q 90 743 105 743 q 63 769 63 743 l 63 1064 q 86 1096 63 1084 q 136 1107 109 1107 q 178 1089 178 1107 l 178 1086 z "},"":{"ha":75,"x_min":0,"x_max":0,"o":""},"":{"ha":0,"x_min":0,"x_max":0,"o":""},"":{"ha":0,"x_min":0,"x_max":0,"o":""},"":{"ha":305,"x_min":73,"x_max":186,"o":"m 186 1088 l 142 779 q 127 754 140 764 q 99 745 114 745 q 73 771 73 745 l 73 1066 q 95 1098 73 1086 q 146 1109 118 1109 q 186 1090 186 1109 l 186 1088 z "},"":{"ha":305,"x_min":73,"x_max":186,"o":"m 186 1088 l 142 779 q 127 754 140 764 q 99 745 114 745 q 73 771 73 745 l 73 1066 q 95 1098 73 1086 q 146 1109 118 1109 q 186 1090 186 1109 l 186 1088 z "},"":{"ha":597,"x_min":63,"x_max":333,"o":"m 333 1092 l 289 782 q 273 758 286 767 q 245 748 260 748 q 218 774 218 748 l 218 1069 q 241 1101 218 1090 q 292 1112 264 1112 q 333 1095 333 1112 l 333 1092 m 178 1086 l 134 777 q 118 753 131 762 q 90 743 105 743 q 63 769 63 743 l 63 1064 q 86 1096 63 1084 q 136 1107 109 1107 q 178 1089 178 1107 l 178 1086 z "},"":{"ha":597,"x_min":63,"x_max":333,"o":"m 333 1092 l 289 782 q 273 758 286 767 q 245 748 260 748 q 218 774 218 748 l 218 1069 q 241 1101 218 1090 q 292 1112 264 1112 q 333 1095 333 1112 l 333 1092 m 178 1086 l 134 777 q 118 753 131 762 q 90 743 105 743 q 63 769 63 743 l 63 1064 q 86 1096 63 1084 q 136 1107 109 1107 q 178 1089 178 1107 l 178 1086 z "},"":{"ha":1290,"x_min":-71,"x_max":1244,"o":"m 132 652 q 138 460 138 566 q 138 408 138 460 q 123 96 138 235 l -45 96 q -9 503 -9 319 q -11 581 -9 543 q -14 646 -12 618 q -20 708 -16 673 q -27 761 -24 743 q -36 815 -29 779 q -46 864 -43 851 q -58 919 -49 877 q -71 975 -68 962 l 98 975 q 106 903 103 946 q 112 840 109 859 q 233 872 151 859 q 379 885 315 885 q 529 874 447 885 q 640 842 611 863 q 684 944 642 846 l 823 838 q 724 483 724 667 q 725 428 724 446 q 727 394 725 410 q 731 372 730 377 q 741 349 733 368 q 753 315 748 330 l 614 235 q 594 290 604 264 q 580 325 584 315 q 573 352 576 334 q 568 391 569 370 q 568 455 568 413 l 568 486 q 571 595 568 553 q 588 688 575 637 q 490 707 558 701 q 369 712 422 712 q 250 694 321 712 q 132 652 178 677 m 442 557 q 494 416 477 501 q 511 277 511 331 q 510 250 511 260 q 507 228 509 239 q 503 213 505 218 q 497 196 502 209 q 490 176 492 182 q 638 217 559 185 q 781 290 716 250 q 902 374 846 331 q 991 453 958 418 q 1031 506 1025 488 q 1047 600 1047 547 q 1019 677 1047 646 q 950 708 991 708 l 1120 871 q 1180 815 1155 848 q 1219 744 1206 781 q 1238 671 1232 707 q 1244 599 1244 635 q 1242 550 1244 570 q 1196 421 1231 481 q 1108 315 1161 361 q 996 230 1056 269 q 864 159 937 192 q 731 102 792 127 q 602 49 670 77 q 492 0 533 21 l 376 -53 q 316 -43 349 -53 q 345 148 345 51 l 345 233 q 328 404 345 342 q 278 489 311 465 q 187 515 245 513 q 326 657 245 581 q 370 642 348 656 q 406 610 391 629 q 430 578 421 591 q 442 557 438 565 z "},"":{"ha":869,"x_min":53,"x_max":815,"o":"m 553 -43 q 435 -21 493 -43 q 325 41 376 0 q 233 151 273 82 q 177 307 194 220 l 61 307 q 53 338 53 321 q 102 416 53 375 l 164 416 l 164 433 l 164 466 l 61 466 q 54 496 54 480 q 102 575 54 536 l 180 575 q 189 614 184 595 q 209 669 195 633 q 242 736 224 705 q 293 801 261 766 q 365 860 326 836 q 461 901 404 884 q 585 917 518 917 q 797 861 710 917 l 808 854 q 815 818 815 834 q 801 773 815 792 q 759 734 786 754 l 743 743 q 571 783 671 783 q 417 729 480 783 q 328 575 354 675 l 696 575 q 711 547 711 562 q 654 466 711 519 l 312 466 q 312 450 312 460 q 311 435 311 439 l 311 416 l 635 416 q 650 380 650 397 q 640 353 650 367 q 621 330 630 338 q 591 307 612 322 l 326 307 q 416 149 352 207 q 554 91 480 91 q 643 98 605 91 q 722 125 681 104 l 738 134 q 789 42 789 107 q 787 13 789 28 l 774 5 q 553 -43 689 -43 z "},"":{"ha":854,"x_min":61,"x_max":793,"o":"m 753 542 q 734 496 753 515 q 689 477 715 477 q 643 496 662 477 q 625 542 625 515 q 643 587 625 568 q 689 606 662 606 q 734 587 715 606 q 753 542 753 568 m 643 129 q 624 84 643 102 q 578 65 605 65 q 533 84 551 65 q 514 129 514 102 q 533 175 514 156 q 578 193 551 193 q 624 175 605 193 q 643 129 643 156 m 230 239 q 211 194 230 213 q 165 175 193 175 q 120 194 139 175 q 102 239 102 213 q 120 285 102 267 q 165 304 139 304 q 211 285 193 304 q 230 239 230 267 m 340 652 q 322 607 340 625 q 276 588 303 588 q 231 607 250 588 q 212 652 212 625 q 231 697 212 679 q 276 716 250 716 q 322 697 303 716 q 340 652 340 679 m 230 542 q 211 496 230 515 q 165 477 193 477 q 120 496 139 477 q 102 542 102 515 q 120 587 102 568 q 165 606 139 606 q 211 587 193 606 q 230 542 230 568 m 340 129 q 322 84 340 102 q 276 65 303 65 q 231 84 250 65 q 212 129 212 102 q 231 175 212 156 q 276 193 250 193 q 322 175 303 193 q 340 129 340 156 m 753 239 q 734 194 753 213 q 689 175 715 175 q 643 194 662 175 q 625 239 625 213 q 643 285 625 267 q 689 304 662 304 q 734 285 715 304 q 753 239 753 267 m 643 652 q 624 607 643 625 q 578 588 605 588 q 533 607 551 588 q 514 652 514 625 q 533 697 514 679 q 578 716 551 716 q 624 697 605 716 q 643 652 643 679 m 492 88 q 473 43 492 62 q 427 24 454 24 q 381 43 400 24 q 363 88 363 62 q 381 134 363 115 q 427 153 400 153 q 473 134 454 153 q 492 88 492 115 m 775 436 q 784 427 775 436 q 793 391 793 418 q 775 345 793 363 q 730 326 756 326 q 684 345 703 326 q 665 391 665 363 q 684 436 665 418 q 730 455 703 455 q 775 436 756 455 m 492 693 q 473 647 492 666 q 427 629 454 629 q 381 647 400 629 q 363 693 363 666 q 381 739 363 720 q 427 758 400 758 q 473 739 454 758 q 492 693 492 720 m 171 436 q 180 427 171 436 q 189 391 189 418 q 171 345 189 363 q 125 326 152 326 q 80 345 98 326 q 61 391 61 363 q 80 436 61 418 q 125 455 98 455 q 171 436 152 455 z "},"":{"ha":507,"x_min":52,"x_max":2195,"o":"m 302 185 q 321 232 302 212 q 369 252 340 252 q 417 233 397 252 q 436 185 436 213 q 417 138 436 157 q 369 119 397 119 q 321 138 340 119 q 302 185 302 157 m 2195 258 m 331 277 q 312 470 331 378 q 259 594 294 562 q 243 598 252 598 q 193 576 222 598 q 145 527 165 554 l 52 482 q 68 616 52 549 q 114 738 85 682 q 191 828 144 793 q 294 863 238 863 q 342 857 317 863 q 420 715 394 836 q 447 391 447 594 l 331 277 z "},"":{"ha":0,"x_min":0,"x_max":0,"o":""},"":{"ha":1000,"x_min":-36,"x_max":936,"o":"m 406 690 q 365 511 365 578 q 376 451 365 475 q 405 413 388 426 q 451 393 421 400 q 505 384 480 386 q 568 382 530 382 q 646 469 616 433 q 705 548 677 506 q 746 631 733 591 q 760 711 760 671 q 751 789 760 739 q 730 865 742 838 l 899 865 q 925 780 914 835 q 936 688 936 725 q 893 513 936 606 q 783 338 851 420 q 628 177 714 255 q 454 40 541 98 q 285 -57 366 -19 q 147 -104 204 -96 q -36 -57 14 -104 q 177 68 58 -9 q 408 235 297 144 q 263 335 313 262 q 214 513 214 408 q 277 774 214 631 l 406 690 z "},"":{"ha":713,"x_min":64,"x_max":651,"o":"m 64 283 l 64 439 l 270 439 l 270 636 l 452 636 l 452 439 l 651 439 l 651 283 l 64 283 z "},"":{"ha":521,"x_min":41,"x_max":433,"o":"m 130 330 q 120 340 130 330 q 110 377 110 349 q 130 425 110 405 q 177 444 149 444 q 224 425 205 444 q 244 377 244 405 q 224 330 244 349 q 177 311 205 311 q 130 330 149 311 m 41 513 q 116 626 64 555 q 205 742 168 696 q 308 867 243 788 q 335 865 321 867 q 381 781 361 865 q 412 563 401 697 q 428 285 422 428 q 433 0 433 142 l 264 0 q 288 282 288 142 q 264 665 288 547 q 248 669 257 669 q 195 635 225 669 q 153 564 165 601 l 41 513 z "},"":{"ha":507,"x_min":7,"x_max":473,"o":"m 26 332 q 17 342 26 332 q 7 379 7 351 q 26 427 7 407 q 74 446 46 446 q 121 427 102 446 q 141 379 141 407 q 121 332 141 351 q 74 313 102 313 q 26 332 46 313 m 446 87 l 286 -19 q 225 253 239 143 q 212 583 212 363 q 141 715 212 683 l 281 892 q 395 809 342 867 q 473 691 449 751 l 373 575 l 353 589 q 338 485 338 543 q 355 345 338 418 q 392 223 372 272 q 429 135 412 174 q 446 87 446 95 z "},"":{"ha":507,"x_min":52,"x_max":2195,"o":"m 149 355 q 139 364 149 355 q 130 401 130 374 q 149 449 130 429 q 197 469 169 469 q 244 449 224 469 q 264 401 264 429 q 244 355 264 374 q 197 336 224 336 q 149 355 169 336 m 2195 258 m 331 277 q 312 470 331 378 q 259 594 294 562 q 243 598 252 598 q 193 576 222 598 q 145 527 165 554 l 52 482 q 68 616 52 549 q 114 738 85 682 q 191 828 144 793 q 294 863 238 863 q 342 857 317 863 q 420 715 394 836 q 447 391 447 594 l 331 277 z "}}}
